<?xml version="1.0" encoding="utf-8"?>
<!-- Generator: Adobe Illustrator 16.0.4, SVG Export Plug-In . SVG Version: 6.00 Build 0)  -->
<!DOCTYPE svg PUBLIC "-//W3C//DTD SVG 1.1//EN" "http://www.w3.org/Graphics/SVG/1.1/DTD/svg11.dtd">
<svg version="1.1" id="Layer_1" xmlns="http://www.w3.org/2000/svg" xmlns:xlink="http://www.w3.org/1999/xlink" x="0px" y="0px"
	 width="600px" height="420px" viewBox="0 0 600 420" enable-background="new 0 0 600 420" xml:space="preserve">
<g>
	<g>
		<defs>
			<rect id="SVGID_1_" x="65" y="1" width="468.479" height="418.08"/>
		</defs>
		<clipPath id="SVGID_2_">
			<use xlink:href="#SVGID_1_"  overflow="visible"/>
		</clipPath>
		<rect x="65" y="1" clip-path="url(#SVGID_2_)" fill="#FFFFFF" width="468.72" height="418.32"/>
	</g>
	<rect x="102.44" y="13.24" fill-rule="evenodd" clip-rule="evenodd" fill="#FFFFFF" width="416.879" height="77.76"/>
	<polyline fill="none" stroke="#FFFFFF" stroke-width="0.5" stroke-linejoin="round" stroke-miterlimit="10" points="102.44,91 
		102.44,13.24 519.319,13.24 519.319,91 102.44,91 	"/>
	<path fill="none" stroke="#000000" stroke-width="0.5" stroke-linejoin="round" stroke-miterlimit="10" d="M102.44,91h416.879
		 M102.44,91V13.24 M102.44,91v-4.32 M143.96,91v-4.32 M185.72,91v-4.32 M227.48,91v-4.32 M269,91v-4.32 M310.76,91v-4.32
		 M352.52,91v-4.32 M394.04,91v-4.32 M435.8,91v-4.32 M477.56,91v-4.32 M519.319,91v-4.32 M102.44,91h4.08"/>
	<text transform="matrix(1 0 0 1 88.9951 94.3594)" fill="#231F20" font-family="'Times-Roman'" font-size="10">−1</text>
	
		<line fill="none" stroke="#000000" stroke-width="0.5" stroke-linejoin="round" stroke-miterlimit="10" x1="102.44" y1="59.8" x2="106.52" y2="59.8"/>
	<text transform="matrix(1 0 0 1 94.7607 63.1562)" fill="#231F20" font-family="'Times-Roman'" font-size="10">0</text>
	
		<line fill="none" stroke="#000000" stroke-width="0.5" stroke-linejoin="round" stroke-miterlimit="10" x1="102.44" y1="28.84" x2="106.52" y2="28.84"/>
	<text transform="matrix(1 0 0 1 94.7607 32.2031)" fill="#231F20" font-family="'Times-Roman'" font-size="10">1</text>
	<g>
		<defs>
			<rect id="SVGID_3_" x="102.44" y="13.48" width="417.12" height="77.76"/>
		</defs>
		<clipPath id="SVGID_4_">
			<use xlink:href="#SVGID_3_"  overflow="visible"/>
		</clipPath>
		
			<path clip-path="url(#SVGID_4_)" fill="none" stroke="#0000FF" stroke-width="0.5" stroke-linejoin="round" stroke-miterlimit="10" d="
			M470.12,62.68h0.239l0.24-0.24l0.24-0.24l0.24-0.24v-0.72l0.239-0.72V59.8l0.48-0.48v-0.48l0.24-0.24v-0.48l0.239-0.24v-0.96
			l0.24-0.24l0.24,0.24l0.24,0.24v0.48l0.239,0.48v0.72l0.24,0.24v0.48l0.24,0.24h0.24l0.24-0.24v-0.24v0.24l0.239,0.24h0.24
			l0.24,0.24h0.24l0.239,0.24v0.24l0.24,0.24V61l0.48-0.48v-0.24l0.479-0.48h-0.24h0.24l0.24-0.24h0.24h0.239l0.24,0.24h0.24h0.24
			l0.239-0.24h0.24h0.24l0.24-0.24h0.239h0.24l0.24-0.24h0.24l0.24-0.24l0.239-0.24l0.24-0.24v-0.24l0.24-0.24V57.4l0.24,0.24v0.24
			l0.239,0.24v0.48l0.24,0.48v0.96l0.48,0.48V61l0.239-0.24v-0.48l0.24-0.24v-0.48l0.24-0.72v-5.28l0.24-2.88v-7.92l0.239-3.84V34.6
			v0.24l0.24,1.44v7.2l0.24,4.32v11.52l0.24,2.16v1.92l0.239,0.24l0.24,0.24l0.48,0.48h-0.24H485l0.239-0.24v-0.24l0.24-0.24v-0.48
			l0.48-0.479V62.2l0.24-0.24l0.239,0.24v0.48l0.24-0.24l0.24-0.24v-0.96l0.24-0.24v-0.48l0.239-0.48v-0.72l0.24-0.24v-0.24
			l0.24-0.24v-0.72l0.24-0.24V57.4l0.239-0.24l0.24-0.24v1.2l0.24,0.72v0.72l0.24,0.48v1.2l0.239,0.24h0.24h0.24h0.24h0.239
			l0.24,0.24l0.24,0.24H491l0.239-0.24l0.24-0.24h0.24l0.24-0.24V61l0.24-0.24v-0.48l0.479-0.48h-0.24l0.24,0.24l0.24,0.24v0.24
			h0.479v-0.48l0.24-0.24v-0.24l0.24-0.24v-0.48l0.479-0.48h-0.239l0.239,0.48l0.24,0.24v0.24l0.24,0.24v0.24h0.479v-0.72l0.24-0.24
			v-0.48l0.24-0.24l0.24-0.24V57.4l0.239-0.24l0.24-0.24l0.24-0.24l0.24,0.24v0.24l0.239,0.24v0.96l0.24,0.24v0.48l0.24,0.24h0.24
			l0.24-0.24l0.239-0.24v-1.92l0.24-1.92v-9.36l0.24-4.08v-7.2l0.24-2.64v-1.2v4.32l0.239,5.28v12.72l0.24,5.04v4.56l0.48,0.48
			h-0.24h0.24h0.239l0.24-0.24l0.24-0.24l0.479-0.48h-0.239h0.239h0.24l0.24,0.24l0.24-0.24v-0.48l0.239-0.24V61l0.24-0.48v-0.96
			l0.24-0.24v-0.48L503,58.6v-0.48l0.239-0.48v-0.72h0.24l0.24-0.24l0.24-0.24l0.479-0.48H504.2l0.239,1.2l0.24,0.48v0.48l0.24,0.24
			v0.96l0.479,0.48v0.24h0.24l0.48,0.48h-0.24l0.24-0.24l0.239-0.24l0.24,0.24l0.48,0.48h-0.24l0.24-0.24h0.239l0.48-0.48h-0.24
			h0.24l0.24-0.24h0.239l0.24-0.24h0.24H509h0.239h0.24l0.24,0.24h0.24h0.24h0.239l0.24,0.24h0.24h0.24h0.239l0.24-0.24l0.24-0.24
			v-0.24l0.24-0.24V58.6l0.479-0.48v-0.24l0.24,0.24v0.24l0.24,0.24v0.48l0.239,0.24v0.72l0.24,0.24l0.24,0.24V61l0.24,0.24v0.24
			l0.239,0.24h0.24v-2.4l0.24-1.92v-6l0.24-3.6V36.52l0.239-1.92v1.44l0.24,3.84v16.8l0.24,3.84v3.12l0.24,0.24l0.24,0.24h0.239
			h0.24h0.24l0.24-0.24l0.239-0.24l0.24-0.24v-0.96h0.24l0.479-0.48h-0.239h0.239l0.24-0.24v-0.48l0.24-0.24v-0.72l0.24-0.24v-0.96
			l0.239-0.24V58.6l0.24-0.24 M418.76,59.8l0.24-0.24v-0.24l0.24-0.48v-0.72l0.239,0.24h0.24v0.96l0.24,0.24v0.72l0.479,0.48V61
			l0.24-0.24l0.24-0.24v-0.48l0.24-0.24v-1.44l0.239-1.68v-8.64l0.24-4.08v-7.2l0.24-1.68v-0.24v4.56l0.24,4.8v11.76l0.239,4.56v3.6
			l0.24-0.24V62.2v0.24l0.24,0.48v1.44h0.24h0.239l0.24-0.24l0.48-0.48V63.4l0.24-0.24v-0.24l0.479-0.48V62.2l0.24-0.24l0.24-0.24
			V61l0.239-0.48v-0.48l0.24-0.24v-0.24l0.24-0.24V58.6l0.24-0.72v-0.72l0.239-0.24l0.48,0.48v0.24l0.24,0.24v0.48l0.239,0.24v0.48
			l0.24,0.24v0.24l0.24,0.24v0.96l0.24,0.24h0.239l0.24-0.24h0.24l0.24-0.24h0.239l0.24,0.24h0.24l0.24,0.24h0.24l0.239-0.24v-0.48
			l0.24-0.24H431l0.24,0.24l0.239-0.24v-0.48l0.24-0.24h0.24l0.24-0.24l0.239,0.24l0.24,0.24l0.48,0.48h-0.24h0.24l0.239-0.24
			l0.24-0.24l0.24-0.24h0.24h0.239l0.48-0.48v-0.72l0.24-0.72v-0.96l0.239,0.72v-0.24v0.24l0.24,0.24v0.96l0.24,0.48v0.96l0.24,0.24
			v0.48L436.52,61h-0.239l0.239-0.48l0.24-0.72v-0.24l0.24-0.48v-1.2l0.24-1.68v-9.36l0.239-4.56V34.6l0.24-2.16v5.04l0.24,4.8
			v11.28l0.24,4.8v4.56l0.239,0.48v-0.72l0.24,0.24l0.24,0.24l0.24-0.24l0.239-0.24l0.48-0.48v-0.24l0.24-0.24l0.239-0.24h0.24
			l0.24-0.24l0.24-0.24v-0.96l0.239-0.72v-0.48l0.24-0.24l0.24-0.24v-0.48l0.24-0.48v-0.72h0.24l0.239,0.24h0.24l0.24,0.24v0.72
			l0.24,0.48v0.72l0.239,0.24v0.24l0.24,0.24l0.24,0.24v0.24l0.24,0.24V61l0.239-0.24l0.24-0.24h0.24l0.24-0.24l0.239,0.24h0.24
			h0.24l0.24-0.24h0.239l0.24-0.24l0.24-0.24v-0.24l0.24-0.24h0.239h0.24h0.24l0.24,0.24l0.24-0.24h0.239h0.24l0.24-0.24h0.24
			l0.239-0.24V58.6l0.24-0.24v-0.48l0.24-0.24l0.24,0.24l0.239,0.24v0.24l0.48,0.48h-0.24h0.24l0.479,0.48v0.24l0.24,0.24v0.24
			l0.48,0.48h-0.24l0.24-1.68l0.239-1.92v-5.04l0.24-3.36V38.2l0.24-1.92v-0.72v0.72l0.24,2.4v16.56l0.239,4.8v3.36l0.48-0.48h-0.24
			h0.24l0.24-0.24l0.479-0.48v-0.24h0.24l0.24-0.24l0.24,0.24h0.239l0.24-0.24l0.48-0.48v-0.48l0.239-0.24V59.8l0.24-0.48v-0.48
			l0.24-0.48V57.4l0.479-0.48v-0.24h0.24l0.24,0.24v0.48l0.24,0.24v0.24l0.239,0.24v0.48l0.24,0.24v0.48l0.24,0.48v0.96l0.24,0.24
			h0.239l0.24,0.24h0.24l0.24-0.24l0.24,0.24h0.239h0.24l0.24,0.24l0.479-0.48v-0.24l0.24-0.24V59.8l0.24-0.24l0.24-0.24l0.479,0.48
			v0.24l0.24,0.24l0.24-0.24l0.239-0.24l0.24-0.24l0.24-0.24h0.24l0.239-0.24h0.24l0.48-0.48v-0.24l0.239-0.24l0.24,0.24v0.24
			l0.24,0.24v0.72l0.24,0.24v0.48l0.24,0.24h0.239h0.24l0.24-0.24v-1.44l0.24-1.2v-4.56l0.239-3.12v-10.8l0.24-2.88v-1.44l0.24,1.2
			v13.44l0.24,5.04v6.96l0.239,0.72v0.48l0.24,0.24h0.24h0.24l0.239,0.24l0.24-0.24l0.24-0.24h0.24 M365.479,60.76h0.24h0.24h0.24
			l0.239-0.24v-0.24l0.24-0.24v-0.48l0.24-0.24v0.24l0.24,0.24v0.24l0.239,0.24l0.24-0.24v-0.48l0.24-0.24l0.24-0.24l0.239-0.24
			h0.24h0.24h0.24h0.239l0.24,0.24h0.24l0.24-0.24h0.24l0.239-0.24l0.24-0.24v-0.24l0.48-0.48v-0.48l0.239-0.24h0.24l0.24,0.24v0.24
			l0.24,0.24v0.96l0.479,0.48v0.24l0.48,0.48v0.24l0.239-0.24l0.24-0.48v-2.64l0.24-2.16v-9.6l0.24-3.12v-5.04l0.239-1.2v6.72
			l0.24,5.52v10.56l0.24,3.12v0.72l0.24,0.24l0.239,0.24h0.24l0.24-0.24l0.24-0.24l0.24-0.24l0.239-0.24l0.24-0.24l0.24-0.24V61
			l0.24-0.24v-0.48l0.479-0.48v-0.24l0.24-0.24l0.24-0.24V58.6l0.239-0.24v-0.48l0.24-0.24v-0.72l0.24-0.24h0.479v0.479l0.24,0.48
			v0.96l0.24,0.24v0.96l0.24,0.24v0.48l0.239,0.24v0.48h0.24l0.24,0.24h0.24h0.239h0.24h0.24l0.24-0.24h0.24h0.239l0.24-0.24H383
			l0.24-0.24l0.479-0.48v-0.24l0.24,0.24l0.479,0.48v0.48l0.24-0.24l0.24-0.24l0.479-0.48h-0.239h0.239l0.24,0.24l0.24,0.24v-0.24
			l0.479-0.48h-0.239h0.239l0.48-0.48v-0.24l0.24-0.24V58.6l0.239-0.24l0.24-0.24l0.24,0.24v0.48l0.24,0.24v0.72l0.24,0.24h0.239
			h0.24L389,59.8l0.24-0.24v-2.4l0.239-1.68v-4.8l0.24-3.12v-9.12l0.24-1.44v1.44l0.24,3.12v13.68l0.239,3.6v3.12l0.24,0.24v0.24
			l0.24,0.24v0.479l0.24,0.24v0.48l0.239-0.24v-0.48l0.24-0.24l0.24-0.24l0.479-0.48v-0.48l0.24-0.24l0.48-0.48v-0.24l0.239-0.24
			V59.8l0.24-0.48V58.6l0.48-0.48v-0.48l0.24-0.24l0.239-0.24l0.24-0.24H395l0.24,0.24v0.24l0.239,0.24v1.44l0.24,0.24v0.24
			l0.48,0.48h-0.24h0.24l0.239,0.24l0.24-0.24l0.24-0.24l0.24-0.24l0.239,0.24l0.24,0.24l0.24,0.24l0.24,0.24l0.239,0.24l0.24-0.24
			l0.24-0.24v-0.72l0.479-0.48h-0.239h0.239l0.24-0.24h0.24h0.24h0.24h0.239h0.24l0.24,0.24l0.24,0.24l0.479,0.48l0,0h0.24h0.479
			H402.2l0.239-0.24l0.24-0.48v-0.72l0.48-0.48V57.4l0.239,0.24v0.72l0.24,0.24v0.24l0.24,0.24v0.24l0.24,0.24v0.48l0.479,0.48
			h-0.24l0.24-0.24l0.48-0.48v-0.72l0.239-0.48v-2.16l0.24-1.92V45.4l0.24-3.36v-5.28l0.24-0.96v6.48l0.24,4.8v8.88l0.239,3.12v2.64
			l0.24,0.479v1.2l0.24,0.24v0.48l0.24-0.24l0.239-0.24V63.4l0.24-0.24V62.68l0.24-0.24l0.479-0.48H408.2h0.239h0.24l0.24,0.24
			l0.24-0.24v-0.72l0.239-0.24v-0.96l0.24-0.24v-0.24l0.24-0.24V58.6l0.479-0.72v-0.24h0.24h0.24l0.24,0.24l0.239,0.24l0.24,0.24
			l0.24,0.24v0.24l0.24,0.24V61l0.479,0.48v0.24h0.24l0.24-0.24v-0.24l0.479-0.48v-0.24l0.24,0.24v0.48l0.24,0.48V62.2l0.24,0.24
			v0.48l0.239-0.24l0.24-0.24v-0.48l0.24-0.24v-0.48l0.479-0.48v-0.48h0.48v0.48l0.24,0.24l0.239,0.24l0.48-0.48v-0.24l0.24-0.24
			l0.239-0.24h0.24h0.24h0.24h0.24h0.239l0.24-0.24 M312.92,59.8v0.48l0.479,0.48h-0.239h0.239l0.48,0.48v0.24l0.24,0.24l0.24,0.24
			h0.239l0.24,0.24l0.24-0.24l0.24-0.24h0.239l0.24-0.24h0.24l0.24-0.24h0.239h0.24H317h0.24h0.239l0.24-0.24l0.24-0.24h0.24
			l0.479-0.48h-0.24h0.24l0.24-0.24l0.24-0.24h0.239l0.24,0.24l0.24-0.24h0.24l0.24-0.24l0.479-0.48v-0.24l0.48-0.48h-0.24h0.24
			h0.239l0.24,0.24v0.24l0.24,0.24v0.72l0.24,0.24h0.239l0.48-0.48v-0.24h0.24v-3.6l0.239-2.4v-6.96l0.24-3.6v-8.64l0.24-0.48v2.88
			l0.24,4.32v15.6l0.239,3.12v1.92l0.24,0.24v0.96l0.24,0.24h0.24l0.239-0.24l0.48-0.48v-0.24l0.24-0.24l0.24-0.24l0.239-0.24
			l0.24-0.24v-0.48l0.24-0.24l0.24-0.24V59.8l0.239-0.24v-0.48l0.24-0.24v-0.72l0.24-0.48v-0.72l0.24-0.24V56.2l0.479-0.479h-0.24
			l0.24,0.24L329,56.2v0.48l0.24,0.24v0.24l0.239,0.24v1.44l0.24,0.24v0.24l0.24,0.24v0.96l0.479,0.48v0.24l0.24,0.24v-0.24
			l0.24-0.24v-0.72l0.24-0.24h0.239h0.24l0.24,0.24l0.24,0.72v0.48h0.479v-0.72l0.24-0.24v-0.48l0.24-0.24h0.24h0.239l0.24,0.24
			h0.24l0.24,0.24h0.239l0.24-0.24H335h0.24h0.239l0.24-0.24v0.24l0.48,0.48l0,0l0.239-0.24l0.24-0.24l0.24-0.24l0.24-0.24v-0.48
			l0.239-0.24l0.24-0.24l0.24-0.24v-0.24l0.24-0.24V57.4l0.24-0.24l0.239,0.24v0.24l0.24,0.48v0.72l0.48,0.48v0.24l0.479,0.48v0.24
			l0.24-0.24v-1.2l0.24-1.2v-4.56l0.239-3.36V38.68l0.24-2.88v-2.88l0.24,0.96v7.2l0.24,5.52v14.16l0.239,0.96V62.2l0.24,0.24v0.24
			l0.24,0.24v0.48l0.24,0.24V63.4l0.239-0.24v-0.48l0.24-0.24l0.24-0.24v-0.24l0.24-0.24l0.239-0.24h0.24l0.24-0.24l0.24-0.24
			l0.24-0.24V59.8l0.239-0.48v-1.2l0.24-0.48v-0.48l0.24-0.24v-0.48l0.24-0.24h0.479v0.72l0.48,0.48v0.24l0.239,0.24v0.72l0.24,0.48
			v0.24l0.24,0.24v0.48l0.479,0.72V61h0.24h0.24l0.24-0.24h0.239l0.24-0.24l0.24,0.24l0.479,0.48v0.24l0.48-0.48v-0.24l0.48-0.48
			h-0.24h0.24h0.239h0.24l0.24,0.24l0.24,0.24h0.239h0.24h0.24l0.479-0.48h-0.239h0.239l0.24-0.24H353l0.24,0.24l0.239,0.24
			l0.24,0.24h0.24l0.24-0.24l0.479-0.48V59.8l0.48-0.48v-0.24l0.239-0.24V58.6l0.24,0.24v0.48l0.24,0.24v0.96l0.24,0.48v0.48h0.24
			l0.239,0.24h0.24l0.24-0.24v-0.24l0.24-0.48v-3.12l0.239-2.4V44.2l0.24-4.08v-6.24l0.24-0.96v9.12l0.24,6.48v10.8l0.239,2.4v1.44
			l0.24,0.72v1.2l0.24-0.72v-0.24l0.24-0.24h0.239h0.24l0.24-0.24l0.24-0.24h0.239l0.48-0.48v-0.24l0.24-0.48v-1.44l0.239-0.24V59.8
			l0.24-0.24v-0.24l0.24-0.24l0.24-0.24V58.6l0.24-0.24v-0.72l0.239-0.48v-0.24l0.24-0.24l0.24,0.24v0.24l0.24,0.24v0.96l0.239,0.24
			v0.48l0.24,0.24v0.96l0.24,0.24V61h0.24h0.239l0.24-0.24l0.24-0.24l0.24,0.24h0.239 M261.8,41.8v-1.2l0.24-0.24l0.24,0.24v0.72
			l0.24,0.24v0.96l0.24,0.24v0.48l0.24,0.24v0.48l0.24,0.24l0.24,0.24v0.48l0.24,0.24v0.24l0.24,0.24v0.72l0.24,0.48v0.96l0.24,0.48
			v1.44l0.48,0.479h-0.24h0.24l0.24,0.24v0.48l0.24,0.24v1.2l0.24,0.48v1.2l0.24,0.24v0.48l0.24,0.24v0.72l0.24,0.24v0.72l0.24,0.24
			v0.72l0.24,0.24v0.96l0.24,0.24v0.72l0.24,0.24l0.24,0.24l0.24,0.24h0.24l0.24,0.24l0.24,0.24l0.24,0.24H269l0.24,0.24l0.24,0.24
			h0.24l0.24,0.24l0.24,0.24l0.24,0.24l0.48-0.48v-0.48l0.24-0.24V61l0.24-0.24V59.8l0.24-0.24v0.24l0.24,0.24v1.2l0.24,0.72v0.96
			l0.48,0.48h-0.24h0.24h0.24l0.24-0.24v-0.48l0.24-0.96v-3.84l0.24-2.4v-9.6l0.24-3.12v-3.84l0.24-0.48v6.48l0.24,5.04v10.32
			l0.24,3.6v3.36l0.24,0.24v-0.24l0.24-0.96v-1.2l0.24-0.24l0.24-0.24l0.24-0.24h0.24l0.24-0.24h0.24l0.24-0.24l0.24-0.24l0.24-0.24
			v-0.48l0.24-0.24v-0.24l0.24-0.24V61.72l0.24-0.48V59.8l0.24-0.24v-0.48l0.24-0.48v-0.72l0.48-0.48h-0.24l0.24,0.48l0.24,0.24
			v0.24l0.24,0.24v0.72l0.48,0.48v0.48l0.24,0.24l0.24,0.24V61l0.24,0.24l0.24-0.24l0.24-0.24v-0.48l0.24,0.24l0.24,0.24l0.24,0.24
			l0.24-0.24h0.24l0.24-0.24l0.24,0.24h0.24l0.24-0.24h0.24l0.24,0.24h0.24h0.24l0.24-0.24h0.24h0.24l0.24-0.24h0.24l0.24,0.24
			l0.24,0.24l0.24,0.24l0.24,0.24h0.24l0.24,0.24H287h0.24l0.48-0.48v-0.48l0.24-0.24v-0.24l0.24-0.24v-0.24l0.48-0.48h-0.24
			l0.24,0.24l0.24,0.24v0.72l0.24,0.24v0.24L289.4,61v0.48h0.24l0.24-0.24V61l0.24-0.24v-1.2l0.24-1.92v-9.6l0.24-4.32v-8.4
			l0.24-2.4v-0.96v2.64l0.24,4.56V51.4l0.24,5.52v5.52l0.24,0.24v0.48l0.24,0.24l0.24-0.24l0.48-0.48v-0.24l0.24-0.24H293l0.24-0.24
			h0.24l0.24-0.24l0.24-0.24l0.24-0.24v-0.72l0.24-0.24V59.8l0.24-0.24v-0.72l0.24-0.24v-0.48l0.24-0.24v-0.24l0.24-0.24l0.24-0.24
			l0.24,0.24l0.24,0.24v0.48l0.24,0.24v0.48l0.24,0.24v0.72l0.24,0.24v0.24l0.24,0.24l0.24,0.24h0.24h0.24h0.24h0.24l0.24-0.24h0.24
			H299h0.24h0.239l0.24-0.24l0.24-0.24h0.24l0.239-0.24l0.48-0.48h-0.24h0.24l0.24,0.24l0.479,0.48v0.48h0.24l0.24-0.24l0.24-0.24
			h0.239h0.24l0.24,0.24l0.24,0.24l0.239-0.24v-0.24l0.24-0.48V58.6l0.48-0.48h-0.24h0.24l0.239-0.24h0.24l0.24-0.24l0.24,0.24
			l0.239,0.24v0.48l0.24,0.24v0.24l0.48,0.48v0.48l0.239-0.24v-0.24l0.24-0.48v-2.64l0.24-1.68v-4.8l0.24-3.36v-7.44l0.239-3.36
			v-2.64v0.72l0.24,3.6v11.04l0.24,5.76v7.68l0.48,0.48v0.24h0.239l0.24,0.24l0.48-0.48V62.2l0.239-0.24l0.24-0.24h0.24l0.24-0.24
			L310.76,61v-0.48l0.24-0.24l0.24-0.24v-0.48l0.239-0.48v-1.2l0.24-0.24l0.24-0.24h0.24l0.479,0.48v1.44l0.24,0.48 M213.8,60.76
			h0.24h0.24h0.24h0.24H215h0.48v-0.24l0.24-0.24l0.24-0.24l0.24-0.24l0.24-0.24h0.24l0.24,0.24h0.24l0.24,0.24h0.24h0.24l0.24-0.24
			l0.24-0.24l0.48-0.48h-0.24h0.24l0.24,0.24v0.48l0.24,0.24l0.24,0.24v-0.72l0.24-0.24l0.24-0.24h0.24l0.24-0.24l0.24-0.24
			l0.48-0.48v-0.24l0.24-0.24l0.48-0.48h-0.24l0.24,0.72l0.24,0.72v0.48l0.24,0.24l0.24,0.24v0.24l0.24,0.24v0.24l0.24,0.24
			l0.24-0.24v-1.92l0.24-0.96v-3.6l0.24-3.12v-12l0.24-3.6v-3.84l0.24,0.72v13.92l0.24,5.76v8.4l0.24,1.68v1.92l0.24,0.48v0.48
			l0.24-0.24v-0.72l0.24-0.24v-0.24l0.24-0.24h0.24h0.24h0.24l0.24,0.24l0.24-0.24v-0.24l0.24-0.24v-0.96l0.24-0.48v-0.24l0.48-0.48
			V59.8l0.24-0.24v-1.2l0.24-0.48V57.4l0.24-0.24l0.24-0.24v0.24l0.24,0.24v0.24l0.24,0.24v0.24l0.24,0.24v1.2l0.24,0.48v0.48
			l0.24,0.24l0.24,0.24h0.24h0.24h0.24h0.24h0.24l0.24,0.24l0.24,0.24h0.48v-0.24l0.48-0.48v-0.48l0.24-0.24l0.24-0.24h0.24
			l0.48,0.48h-0.24h0.24l0.24,0.24l0.24-0.24h0.24l0.24-0.24l0.24-0.24l0.24-0.24l0.24,0.24h0.24h0.24h0.24h0.24l0.24-0.24
			l0.24-0.24v-0.48h0.48v0.24v-0.24l0.24-0.24v-0.48l0.24-0.24v-1.2l0.48-0.48h-0.24l0.24,0.72L239,57.4v0.72l0.24,0.24v0.96
			l0.24,0.24l0.24-0.24l0.24-0.24V58.6l0.24-0.24V57.4l0.24-0.72V52.6l0.24-3.12v-12l0.24-3.12v-1.68l0.24,1.68v7.92l0.24,5.28
			v13.68l0.24,0.96v-0.72l0.24-0.24v2.16l0.24,0.72v0.24v-0.24l0.24-0.48V62.2l0.48-0.479h-0.24h0.24h0.24l0.24-0.24h0.24h0.24h0.24
			l0.24-0.24l0.24-0.48V59.8l0.24-0.24v-0.24l0.24-0.24V58.6l0.48-0.48v-0.48l0.24-0.24h0.24l0.24,0.24v1.2l0.24,0.72v0.48
			l0.24,0.24V61l0.48,0.48v0.24l0.24,0.24l0.24,0.24v0.24l0.24,0.24v0.72l0.24,0.24h0.48v-0.72l0.24,0.24l0.24,0.24h0.24h0.24
			l0.24,0.24v0.72l0.24,0.96v0.48l0.24,0.24v0.24l0.24,0.24l0.24,0.24V67l0.48,0.48v0.48l0.24,0.24v0.48l0.24,0.24v0.24l0.24,0.24
			v0.48l0.24,0.24l0.24-0.24l0.24-0.24V69.4l0.24-0.24v-0.72l0.24-0.48v-1.44l0.24-0.48v-1.68l0.24-0.48v-1.44l0.24-0.72v-1.2
			l0.24-0.72v-0.72l0.24-0.24v0.48l0.48,0.48h-0.24l0.24-0.48l0.24-0.96v-2.88l0.24-0.24V55l0.24,0.48v1.68l0.48,0.48v1.44
			l0.24,0.96v1.68l0.24,0.479v0.48v-0.96l0.24-1.68v-4.8L257,52.6v-4.32l0.24-1.68v-1.2v1.44l0.24,2.88v7.92l0.24,3.6v7.92
			l0.24,1.44v0.96l0.24,0.24v0.24l0.24,0.24v0.48l0.24,0.24v-0.72l0.24-0.24v-0.48l0.24-0.24v-0.24l0.24-0.24l0.24-0.24v-0.48
			l0.24-0.72v-1.2l0.24-0.24v-1.92l0.24-0.96v-2.4L260.6,61v-3.84l0.24-1.439v-2.88l0.24-1.2v-1.68l0.24-0.72v-2.88l0.24-1.44v-2.4
			l0.24-0.72 M161.24,60.28V59.8l0.24-0.48v-0.96l0.24-0.48V57.4l0.48-0.48l0,0h0.24l0.24,0.24l0.24,0.24v0.48l0.24,0.48v0.48
			l0.24,0.24v0.24l0.24,0.24v0.72l0.48,0.48V61l0.24-0.24v-0.24l0.24-0.24V59.8l0.24-0.24h0.24l0.24,0.24l0.24,0.24h0.24h0.24
			l0.24-0.24h0.48h-0.24h0.24H167h0.24h0.24h0.24h0.24h0.24h0.24h0.24l0.24,0.24h0.24l0.24,0.24l0.24-0.24l0.24-0.24h0.24h0.24
			l0.24-0.24l0.24-0.24l0.48-0.48h-0.24h0.24l0.48-0.48v-0.24l0.24-0.24v-0.24v0.24l0.48,0.48v0.48l0.24,0.24v0.24l0.48,0.48v0.72
			l0.48,0.48h-0.24l0.24-0.48l0.24-0.96v-3.12l0.24-2.16v-9.84l0.24-3.84v-6.96l0.24-1.2v7.44l0.24,5.76v11.28l0.24,3.6v2.4
			l0.48,0.48v0.24l0.24,0.24h0.24l0.24,0.24l0.24-0.24l0.24-0.48v-0.48l0.48-0.48V62.2h0.24l0.24-0.24l0.24-0.24v-0.24l0.24-0.24
			v-0.72l0.24-0.48v-1.2l0.24-0.24v-0.72l0.48-0.48v-0.24l0.24,0.24l0.24,0.24v0.48l0.24,0.24v0.72l0.24,0.24v0.48l0.24,0.24v0.48
			h0.24l0.24,0.24h0.24L181.4,61l0.24-0.24h0.24l0.48,0.48v0.24l0.24-0.24v-0.48l0.24-0.24v-0.48l0.24-0.24v-0.48l0.24,0.24
			l0.24,0.24l0.24,0.24v0.24l0.24,0.24h0.24l0.24-0.24l0.24-0.24L185,59.8l0.24-0.24h0.24l0.24,0.24h0.24h0.24l0.48,0.48h-0.24
			l0.24-0.48l0.24-0.24v-0.24l0.48-0.48V58.6l0.24-0.24l0.24-0.24l0.24-0.24l0.24-0.24l0.24,0.24v0.24l0.24,0.24l0.24,0.24v0.24
			l0.24,0.24h0.24l0.48-0.48v-4.08l0.24-2.4v-7.2l0.24-3.6v-6l0.24,0.24v4.56l0.24,5.04v14.88l0.24,1.2v0.48l0.48,0.48v0.24
			l0.48,0.48v0.24l0.24-0.24l0.24-0.24l0.24-0.24v-0.48l0.48-0.48l0,0l0.24-0.24h0.24l0.24-0.24l0.24-0.24v-1.2l0.24-0.24v-0.24
			l0.24-0.48v-0.96l0.24-0.24l0.48,0.48v0.24l0.24,0.24l0.24,0.24l0.24,0.24v0.24l0.24,0.24v0.48l0.24,0.24l0.24,0.24h0.24
			l0.24,0.24h0.24l0.24-0.24h0.24h0.24h0.24l0.24-0.24h0.24h0.24l0.24-0.24v-0.24v0.24l0.24,0.24l0.24,0.24h0.24l0.24-0.24
			l0.24-0.24l0.24,0.24l0.24-0.24h0.24h0.24h0.24h0.24h0.24h0.24H203l0.24-0.24l0.24-0.24l0.24-0.24v-0.24l0.24-0.24l0.24-0.24
			l0.24-0.24v-0.24l0.24-0.24v-0.48h0.24l0.24,0.24v0.72l0.24,0.72v0.72l0.24,0.24v0.24h0.48V59.8l0.24-0.24v-0.24l0.24-0.48V56.2
			l0.24-2.16V42.76l0.24-4.08v-6.72l0.24-0.96v4.08l0.24,5.04v17.04l0.24,3.36v2.16l0.24,0.24v0.96l0.24,0.24V63.4l0.24-0.24V62.68
			v0.24L209,63.4h-0.24l0.24-0.24l0.48-0.479h-0.24l0.24,0.24l0.24-0.24v-0.24l0.48-0.48h-0.24h0.24l0.24-0.24l0.24-0.24V61
			l0.24-0.48v-0.96l0.24-0.24v-0.48l0.24-0.24v-0.24l0.24-0.24v-0.24l0.48-0.48h-0.24h0.24l0.48,0.48v0.72l0.24,0.24v0.72l0.24,0.24
			l0.24,0.24v0.48l0.24,0.24h0.24 M114.92,59.8l0.24-0.24v-0.48l0.24-0.24v-0.48l0.48-0.48v-0.24h0.24h0.24l0.24,0.24v0.24
			l0.24,0.24v0.24l0.24,0.24v0.72l0.24,0.24v0.48l0.48-0.48v-0.24l0.24-0.24l0.48-0.48h-0.24h0.24l0.24-0.24l0.24-0.24l0.24-0.24
			l0.24-0.24l0.24-0.24V57.4l0.24-0.24v-0.48l0.24-0.24h0.24h0.24h0.24h0.24l0.24-0.24h0.24l0.24-0.24l0.24-0.24l0.24-0.24V55
			l0.48-0.48h-0.24h0.24l0.24-0.24l0.24-0.24l0.48-0.48v-0.24l0.24,0.24l0.48,0.48v0.48h0.24l0.24-0.24l0.24-0.24V53.8l0.24-0.48
			v-5.04l0.24-2.64v-5.52l0.24-2.64v-3.84l0.24-0.48v5.28l0.24,3.12v5.76l0.24,2.88v6.24l0.24,0.24v0.48h0.24l0.24-0.24l0.24-0.24
			v-0.24l0.24-0.24l0.48-0.479v-0.24l0.24-0.24l0.48-0.48v-0.24l0.24-0.24h0.24l0.24,0.24v0.24l0.24,0.48v0.96l0.24,0.24v0.48
			l0.48,0.48v0.48l0.24,0.24v0.24l0.24,0.48v0.24l0.24,0.72v2.4l0.24,0.72v1.68l0.24,0.72V67l0.24,0.48v0.24l0.24,0.24l0.24,0.24
			l0.24,0.24l0.24,0.24v0.24l0.24,0.48v1.2l0.24,0.24v0.72l0.24,0.24v0.96l0.24,0.24v1.68l0.24,0.72v1.44l0.24,0.72v2.4l0.24,0.96
			v1.44l0.24,0.48v0.48l0.24-0.24v-0.96l0.24-0.96v-1.2l0.24-0.48v-1.2l0.24-0.48v-1.44l0.24-0.48v-1.2l0.48-0.48V73.72l0.24-0.24
			V73l0.24-0.24v-1.68l0.24-0.72v-1.44l0.24-0.48v-0.72l0.24-0.24v-0.24L138.2,67v-0.48l0.24-0.48v-0.72l0.24-0.96v-1.2l0.24-0.48
			v-0.72l0.24-0.24v-0.24l0.24-0.24l0.24-0.24l0.24,0.72v-0.24v0.24l0.48,0.479h-0.24l0.24-0.24l0.24-0.48v-2.64l0.24-2.16V46.12
			l0.24-3.84v-4.56l0.24-0.72v6.96l0.24,4.8v9.36l0.24,3.12v2.4l0.24,0.72v1.92l0.24,0.24l0.24-0.24v-0.72l0.24-0.24v-0.48L143,64.6
			v-0.48l0.24-0.24l0.24-0.24V63.4l0.24-0.24v-0.24l0.24-0.24V62.2l0.24-0.24v-0.48l0.24-0.24v-1.2l0.24-0.48v-1.2l0.24-0.24V57.4
			l0.24-0.24V56.2l0.24-0.24v-0.72l0.24-0.24v-0.48l0.24-0.24v-0.24l0.24-0.24v-0.96l0.48-0.48h-0.24h0.24l0.24,0.24v0.72l0.24,0.48
			v0.96l0.24,0.48v0.96l0.24,0.24l0.24,0.24h0.24l0.24-0.24h0.24l0.24-0.24H149l0.24,0.24v0.48h0.24l0.24,0.24h0.24l0.48-0.48v-0.24
			h0.24h0.24h0.24l0.24,0.24v0.24l0.48,0.48v0.24l0.48-0.48v-0.48l0.24-0.24v-1.2l0.48-0.72h-0.24l0.24,0.24l0.24,0.24v0.48
			l0.24,0.48v1.2l0.48,0.48v0.24l0.24-0.24l0.24-0.24l0.24-0.24v-0.24l0.48-0.48H155l0.24,0.24l0.24,0.24v0.24l0.24,0.24v0.72
			l0.24,0.24v0.24l0.24,0.24l0.24-0.24l0.24-0.24h0.24V57.4l0.24-1.2v-6.72l0.24-3.6v-8.16l0.24-3.6V31l0.24,0.96V45.4l0.24,6v8.64
			l0.24,1.68V62.2v-0.24l0.24-0.24l0.24,0.479v0.96l0.24-0.72v0.24v-0.24l0.24-0.24V61.72l0.24-0.24l0.24,0.24h0.24l0.48-0.48h-0.24
			h0.24l0.24-0.24v-0.24l0.48-0.48 M102.44,63.88V67l0.24,0.48v0.48l0.24,0.24l0.24-0.24l0.48-0.48v-0.24l0.24-0.24h0.24h0.24h0.24
			l0.24-0.24l0.24-0.24h0.24l0.24-0.24l0.24-0.24l0.24,0.24l0.24,0.24V67l0.24,0.48v0.72l0.24,0.24v0.24l0.24,0.24v-0.24l0.24-0.24
			v-0.48l0.24-0.24v-0.24l0.24-0.24V67l0.24-0.24l0.24-0.24v-0.24l0.24-0.48v-0.48l0.48-0.48h-0.24h0.24l0.24-0.24l0.24,0.24h0.24
			l0.24,0.24l0.24,0.24l0.24-0.24v-0.24l0.24-1.2v-4.08l0.24-3.12V46.36l0.24-2.64v-2.16l0.24,0.48v7.68l0.24,3.6v6.72l0.24,2.64
			v3.6l0.24,0.48v0.48l0.24,0.24v0.24l0.48,0.479h-0.24l0.24-0.24l0.24-0.24v-0.24l0.24-0.24v-0.48l0.24-0.24V65.8l0.24-0.24v-0.48
			l0.24-0.24V64.6l0.24-0.24v-0.48l0.24-0.24v-0.96l0.24-0.48v-0.72l0.24-0.48v-1.2"/>
	</g>
	<text transform="matrix(0 -1 1 0 82.042 85.7109)" fill="#231F20" font-family="'Times-Roman'" font-size="10">Amplitude (mV)</text>
	<text transform="matrix(1 0 0 1 123.0811 17.3203)" fill="#231F20" font-family="'Times-Roman'" font-size="12">Normal rhythm</text>
	<text transform="matrix(1 0 0 1 414.917 17.3203)" fill="#231F20" font-family="'Times-Roman'" font-size="12">Recording−−A00001</text>
	<rect x="102.44" y="111.88" fill-rule="evenodd" clip-rule="evenodd" fill="#FFFFFF" width="416.879" height="77.28"/>
	<polyline fill="none" stroke="#FFFFFF" stroke-width="0.5" stroke-linejoin="round" stroke-miterlimit="10" points="102.44,189.16 
		102.44,111.88 519.319,111.88 519.319,189.16 102.44,189.16 	"/>
	<path fill="none" stroke="#000000" stroke-width="0.5" stroke-linejoin="round" stroke-miterlimit="10" d="M102.44,189.16h416.879
		 M102.44,189.16v-77.28 M102.44,189.16v-4.32 M143.96,189.16v-4.32 M185.72,189.16v-4.32 M227.48,189.16v-4.32 M269,189.16v-4.32
		 M310.76,189.16v-4.32 M352.52,189.16v-4.32 M394.04,189.16v-4.32 M435.8,189.16v-4.32 M477.56,189.16v-4.32 M519.319,189.16v-4.32
		 M102.44,189.16h4.08"/>
	<text transform="matrix(1 0 0 1 88.9951 192.5234)" fill="#231F20" font-family="'Times-Roman'" font-size="10">−1</text>
	
		<line fill="none" stroke="#000000" stroke-width="0.5" stroke-linejoin="round" stroke-miterlimit="10" x1="102.44" y1="164.92" x2="106.52" y2="164.92"/>
	<text transform="matrix(1 0 0 1 94.7607 168.2812)" fill="#231F20" font-family="'Times-Roman'" font-size="10">0</text>
	
		<line fill="none" stroke="#000000" stroke-width="0.5" stroke-linejoin="round" stroke-miterlimit="10" x1="102.44" y1="140.68" x2="106.52" y2="140.68"/>
	<text transform="matrix(1 0 0 1 94.7607 144.0391)" fill="#231F20" font-family="'Times-Roman'" font-size="10">1</text>
	
		<line fill="none" stroke="#000000" stroke-width="0.5" stroke-linejoin="round" stroke-miterlimit="10" x1="102.44" y1="116.68" x2="106.52" y2="116.68"/>
	<text transform="matrix(1 0 0 1 94.7607 120.0391)" fill="#231F20" font-family="'Times-Roman'" font-size="10">2</text>
	<g>
		<defs>
			<rect id="SVGID_5_" x="102.44" y="111.88" width="417.12" height="77.52"/>
		</defs>
		<clipPath id="SVGID_6_">
			<use xlink:href="#SVGID_5_"  overflow="visible"/>
		</clipPath>
		
			<path clip-path="url(#SVGID_6_)" fill="none" stroke="#0000FF" stroke-width="0.5" stroke-linejoin="round" stroke-miterlimit="10" d="
			M468.2,153.4l0.239,6.24v5.28l0.24-0.24v0.24l0.24,0.48v0.48l0.24,0.24h0.239h0.24h0.24h0.24h0.239l0.24-0.24l0.24-0.24l0.24-0.24
			v-0.24l0.239-0.24v-0.48l0.24-0.24v-0.48l0.24-0.24l0.24-0.24V163l0.239-0.24v-0.96l0.24-0.48v-0.48l0.24-0.24v-0.96l0.24-0.24
			v-0.72l0.239-0.24v-0.96l0.48-0.48h-0.24l0.24,0.24l0.24,0.24v0.96l0.24,0.72v1.92l0.239,0.72v0.96l0.24,0.48v0.96l0.24,0.24v0.72
			l0.24,0.24v0.96l0.239,0.24v0.48l0.24,0.24h0.24h0.479h-0.239h0.239l0.24-0.24l0.24-0.24v-0.72l0.24-0.24v-0.48l0.479-0.48v-0.24
			l0.48,0.48v0.24l0.239,0.24l0.24,0.24l0.24,0.24l0.24,0.24h0.239l0.24,0.24l0.24,0.24h0.24l0.24-0.24h0.239l0.24-0.24l0.48-0.48
			v-0.24l0.239-0.24l0.24-0.24l0.24,0.24l0.24,0.24v0.24l0.479,0.48v0.24h0.24h0.24l0.239,0.24h0.24h0.24l0.24-0.24l0.239-0.24
			l0.24-0.24v-0.24l0.24-0.24v-0.24l0.24-0.24l0.239-0.24l0.24-0.24l0.24-0.24h0.24l0.24,0.24l0.479,0.48v0.24h0.24h0.24l0.239-0.24
			l0.24-0.24h0.24h0.24h0.239l0.24-0.24h0.24l0.24-0.24l0.479-0.48v-0.24h0.24l0.24-0.24h0.239l0.24,0.24l0.24-0.24l0.479,0.48v0.48
			l0.24-0.24v-0.72l0.24-1.68v-9.6l0.24-4.56v-9.36l0.24-3.12v-0.96v6l0.239,6v11.76l0.24,3.36V163l0.24,0.24v2.4l0.24,1.2v0.96
			l0.239-0.24v-0.48l0.24-0.24v-0.48l0.24-0.24v-0.48l0.24-0.24v-0.48l0.479-0.48v-0.24h0.24l0.24-0.24h0.239l0.24-0.24l0.24-0.24
			l0.24-0.24l0.239-0.24l0.24-0.24l0.24-0.24l0.24-0.24v-0.48l0.239-0.24v-0.48l0.24-0.24v-0.48l0.48-0.72v-0.24l0.24,0.24
			l0.239,0.24l0.24,0.24v1.2l0.24,0.48v0.96l0.24,0.24v0.96l0.239,0.48v0.72l0.24,0.24v1.2l0.24,0.24l0.24,0.24v0.48l0.239,0.24
			l0.24,0.24h0.24l0.24-0.24l0.239-0.24l0.24-0.24v-0.24l0.24-0.24v-0.48l0.24-0.24v-0.48l0.239-0.24v-0.48h0.24l0.24-0.24
			l0.24,0.24l0.239,0.24v0.48l0.48,0.48v0.24l0.48,0.48h-0.24h0.24l0.239,0.24l0.24,0.24h0.24h0.24l0.239-0.24h0.24l0.24-0.24
			l0.24-0.24v-0.48l0.239-0.24v-0.24l0.24-0.24v-0.48h0.24h0.24h0.239l0.24,0.24v0.24l0.24,0.24v0.48h0.24l0.239,0.24h0.24h0.24
			l0.24-0.24l0.239,0.24h0.24h0.24h0.24h0.24h0.239l0.24-0.24v-1.44l0.24-1.68v-6.24l0.24-4.8V136.6l0.239-2.88v-0.24v1.68
			l0.24,5.04v12.24l0.24,4.56v3.84l0.24,0.24v0.72l0.239,0.96v1.2l0.48,0.48v0.24l0.24,0.24l0.239,0.24l0.24,0.24h0.24h0.24h0.239
			l0.24-0.24v-0.24l0.24-0.48v-0.72l0.24-0.24v-0.96l0.239-0.24v-0.48l0.24-0.24v-0.72l0.24-0.24v-0.24l0.24-0.24v-0.479l0.24-0.24
			l0.239-0.24v-0.24l0.48-0.48h-0.24h0.24l0.24,0.24v0.48l0.239,0.72v0.96l0.24,0.48v1.44l0.24,0.24v0.96l0.24,0.24v1.2l0.239,0.24
			v0.72l0.24,0.24v0.48h0.24l0.24,0.24l0.239-0.24v-0.48h0.24 M414.439,164.2h0.24l0.24-0.24l0.479-0.48V163l0.24-0.24v-0.48
			l0.24-0.24v-0.24l0.24-0.48v-0.72l0.239-0.24v-0.96l0.24-0.24v-0.72h0.24l0.24-0.24l0.239,0.24v0.48l0.24,0.48v0.72l0.24,0.24
			v0.72l0.24,0.48v0.72l0.24,0.24v0.96l0.239,0.48v0.72l0.24,0.48v0.96l0.24,0.24v0.24l0.24,0.24h0.239l0.24,0.24h0.24h0.24h0.239
			h0.24h0.24h0.24l0.239-0.24l0.24-0.24l0.24-0.24v-0.72l0.479-0.48h-0.239h0.239l0.48,0.48v0.72l0.24,0.24l0.239,0.24h0.24
			l0.24,0.24h0.24h0.24l0.239-0.24h0.24l0.24-0.24l0.24-0.24l0.239-0.24l0.48-0.479v-0.24h0.24l0.239-0.24h0.24h0.24h0.24
			l0.239,0.24l0.24,0.24h0.24l0.24,0.24h0.239h0.24l0.24-0.24h0.24l0.239,0.24v0.24l0.24,0.24h0.48v-0.48l0.24-0.24v-0.72
			l0.239-0.24v-0.72l0.24-0.24H431l0.24-0.24h0.239h0.24h0.24h0.24l0.479,0.48h-0.24h0.24l0.24,0.24l0.479,0.48v0.24h0.24l0.24,0.24
			h0.24l0.239,0.24h0.24l0.24,0.24v-0.48l0.24-0.96V157l0.239-4.32v-10.56l0.24-4.8v-3.12l0.24,1.68v18l0.24,4.32v2.16l0.24,0.48
			v1.2l0.239,1.2v0.96l0.24,0.48v0.72l0.24,0.24l0.24,0.24h0.239h0.24h0.24h0.24l0.239-0.24h0.24l0.24-0.24l0.24-0.24v-0.48
			l0.239-0.24v-0.48l0.24-0.24l0.24-0.24v-1.44l0.24-0.48v-0.48l0.239-0.48v-1.44l0.24-0.24l0.24-0.24h0.24h0.239l0.24,0.24v0.48
			l0.24,0.48v0.72l0.24,0.48v1.44l0.24,0.48v1.2l0.239,0.48v0.96l0.24,0.479v0.72l0.48,0.48H443h0.24l0.239,0.24h0.24h0.24
			l0.24-0.24v-0.48l0.239-0.24v-0.24l0.24-0.24v-0.479h0.24l0.24-0.24h0.239l0.48,0.48v0.24l0.24,0.24h0.239l0.24,0.24l0.24,0.24
			h0.24l0.239,0.24l0.24,0.24l0.24,0.24h0.24l0.24,0.24l0.239-0.24v-0.72l0.24-0.24v-0.48l0.48-0.479v-0.24h0.239l0.24,0.24h0.24
			l0.24,0.24l0.479,0.48h-0.24l0.24-0.48l0.24-0.72v-3.6l0.24-3.36v-14.64l0.239-4.8v-2.64l0.24,2.4V157l0.24,4.32v2.16l0.24,0.48
			v1.92l0.239,0.72v0.24l0.24,0.24h0.24l0.24-0.24l0.239-0.24l0.24-0.24l0.24-0.24l0.24-0.24l0.24-0.24l0.239-0.24l0.24-0.24v-0.24
			l0.48-0.48v-0.48l0.239-0.24l0.24-0.24v-1.2l0.24-0.24v-0.48l0.24-0.48v-0.72l0.239-0.24v-1.2l0.48-0.48v-0.24h0.24l0.239,0.24
			v0.24l0.24,0.72v1.2l0.24,0.72v1.92l0.24,0.48v0.96l0.239,0.24v0.48l0.24,0.24v0.24l0.24,0.24v0.48l0.24,0.24h0.239l0.24,0.24
			h0.24h0.24h0.24l0.239-0.24l0.24-0.24l0.24-0.24l0.24-0.24h0.239h0.24h0.24h0.24h0.239l0.24,0.24h0.24l0.24,0.24h0.239l0.24,0.24
			h0.24l0.24,0.24h0.239h0.24l0.24-0.24l0.24-0.24v-0.24l0.239-0.24v-0.96l0.48-0.48h-0.24h0.24l0.24-0.24h0.24h0.239l0.24,0.24
			l0.24,0.24l0.24,0.24v0.24v-0.24l0.239-0.24v-6.24l0.24-4.08v-10.56l0.24-5.28v-5.52v1.44l0.24,4.56v14.16 M355.88,166.84h0.24
			h0.239l0.24-0.24l0.24-0.24l0.24-0.24l0.239-0.24v-0.24l0.24-0.24v-0.48h0.24l0.24,0.24l0.24,0.24l0.239,0.24h0.24l0.24,0.24h0.24
			h0.239h0.24h0.24h0.24h0.239h0.24l0.24-0.24h0.24l0.239-0.24h0.24h0.24h0.24h0.239h0.24l0.24,0.24h0.24l0.239-0.24h0.24l0.24-0.24
			h0.24l0.24-0.24l0.239-0.24l0.24-0.24l0.48-0.48v-0.24l0.239-0.24l0.24,0.24l0.24,0.24l0.24,0.24l0.239,0.24h0.24l0.24,0.24h0.24
			h0.239h0.24l0.24,0.24h0.24l0.239-0.24l0.24-0.24v-3.12l0.24-2.16v-7.44l0.24-4.8V134.2l0.239-0.96v5.52l0.24,6v15.36l0.24,1.2
			v0.72l0.24,0.24v1.44l0.24,1.2v1.2l0.479,0.48h-0.24h0.24H371l0.24-0.24v-0.24l0.239-0.24v-0.72l0.48-0.72v-0.24l0.24-0.24h0.239
			l0.24-0.24h0.24l0.24-0.24l0.239-0.24l0.24-0.24l0.24-0.24v-0.72l0.24-0.24v-0.48l0.239-0.24v-0.24l0.24-0.24v-0.72l0.24-0.24
			v-0.48h0.479v0.24l0.24,0.24v0.96l0.24,0.48v1.2l0.24,0.48v1.68l0.24,0.48v1.2l0.239,0.24v0.72l0.24,0.24l0.24,0.24h0.24
			l0.479-0.48v-0.48l0.24-0.24v-0.48l0.24-0.24v-0.48l0.239-0.24l0.24,0.24l0.24,0.24l0.24,0.24h0.239l0.24,0.24h0.24h0.24h0.239
			l0.24-0.24h0.24h0.24l0.239,0.24h0.24l0.24,0.24h0.24l0.24,0.24h0.239l0.24-0.24l0.24-0.24l0.24-0.24h0.239l0.24-0.24l0.24,0.24
			h0.24l0.239,0.24h0.24h0.48v-0.48h0.239l0.24-0.24l0.24-0.24h0.24h0.239h0.24l0.24,0.24l0.24,0.24l0.239,0.24l0.48,0.479v0.24
			l0.24-0.24l0.479-0.479v-0.24l0.48-0.48v-0.24h0.24h0.239h0.24h0.24l0.24,0.24h0.239h0.24h0.24h0.24h0.239l0.24-0.24h0.24h0.24
			h0.239l0.24-0.24l0.24-0.24h0.24h0.239l0.24-0.24l0.24-0.24h0.24l0.24-0.24l0.239-0.24v-5.04l0.24-3.6v-9.12l0.24-5.04v-6.96
			l0.24,1.68v11.76l0.239,6.96v10.08l0.24,0.24v0.48l0.24,0.24v1.2l0.24,0.24l0.239,0.24l0.24-0.24l0.24-0.24l0.24-0.24v-0.24
			l0.239-0.24v-0.24l0.48-0.48v-0.24l0.24-0.24h0.239l0.24-0.24l0.24-0.24l0.24-0.24V163l0.239-0.24v-0.48l0.24-0.24v-0.24
			l0.24-0.24v-0.48l0.24-0.24v-0.72l0.24-0.24v-0.48l0.239-0.24h0.24l0.48,0.48v0.72l0.239,0.24v1.44l0.24,0.48v0.72l0.24,0.48v1.2
			l0.24,0.24v0.72l0.239,0.24v0.72l0.24,0.24l0.24,0.24h0.24l0.239,0.24h0.24h0.24l0.24,0.24l0.479-0.48v-0.48l0.48-0.48v-0.24
			h0.239l0.24-0.24l0.24-0.24l0.24,0.24l0.24,0.24l0.239,0.24l0.24,0.24l0.24,0.24h0.24h0.239h0.24h0.24h0.24l0.239-0.24l0.24-0.24
			h0.24h0.24l0.239-0.24h0.24h0.24h0.24l0.239-0.24l0.24-0.24l0.24-0.24v-2.16l0.24-2.64v-7.92l0.239-5.04v-13.2l0.24-0.24v7.44
			l0.24,6.72v11.76l0.24,2.88v1.68l0.24,0.24v0.72l0.239,0.479v0.72l0.24,0.24H413l0.24-0.24l0.239-0.24v-0.48l0.24-0.479v-0.72
			l0.24-0.24l0.24-0.24l0.239-0.24 M304.04,167.8h0.24h0.239h0.24l0.24-0.24l0.24-0.24l0.239-0.24l0.24-0.24l0.24-0.24v-0.48
			l0.24-0.24v-0.48l0.239-0.24h0.24l0.24,0.24v0.24l0.24,0.24v0.72h0.239l0.24,0.24h0.24h0.24h0.24h0.239h0.24l0.24-0.24l0.24-0.24
			l0.239-0.24v-1.2l0.24-2.16v-7.68l0.24-5.04V135.4l0.24-1.44v5.76l0.239,6v14.4l0.24,0.96v0.72l0.24,0.24v2.88l0.24,0.72v0.72
			l0.239,0.24h0.24h0.24h0.24l0.239-0.24l0.24-0.24l0.24-0.24l0.479-0.48v-0.24l0.24-0.24v-0.48l0.24-0.24v-0.48l0.24-0.24v-0.72
			l0.239-0.24v-1.2l0.24-0.48v-0.72l0.24-0.48v-1.2l0.24-0.24l0.24-0.24h0.239l0.24,0.24v0.24l0.24,0.24v0.48l0.24,0.24v0.96
			l0.239,0.48v0.96l0.24,0.72v1.68l0.24,0.72v0.72l0.24,0.24v0.72l0.239,0.48v0.48l0.24,0.24l0.24,0.24h0.24h0.479v-0.24l0.24-0.24
			v-0.72l0.24-0.24v-0.48l0.239-0.24v-0.48l0.24-0.24h0.24l0.24,0.24h0.239l0.24,0.24l0.24,0.24h0.24l0.24,0.24l0.239,0.24v0.48
			l0.24,0.24l0.24,0.24h0.24l0.239,0.24l0.24-0.24l0.24-0.24l0.24-0.24l0.239-0.24v-0.48l0.24-0.24v-0.48l0.24-0.24v-0.48h0.24
			l0.239,0.24l0.24,0.72v0.48l0.24,0.24l0.24-0.24v-1.68l0.239-1.92v-11.04l0.24-4.8v-9.12l0.24-1.68v8.16l0.24,6.24v9.84
			l0.239,2.16v1.92l0.24,0.96v1.44l0.24,0.24h0.24l0.24,0.24v0.24l0.239-0.24v-0.48l0.24-0.48v-0.24l0.24-0.24v-0.24l0.479-0.48
			v-0.24h0.24l0.24-0.24l0.24-0.24l0.479-0.48v-0.96l0.24-0.24v-0.72l0.24-0.24v-0.72l0.239-0.24v-0.24l0.24-0.24v-0.48l0.24-0.24
			h0.24l0.239,0.24l0.24,0.24v0.48l0.24,0.24v0.48l0.24,0.48V163l0.24,0.48v0.48l0.239,0.24v0.72l0.24,0.24v0.24l0.24,0.24v0.48
			h0.24l0.239,0.24h0.24h0.24h0.24h0.239h0.24H335l0.24,0.24h0.239l0.24,0.24l0.48,0.48v0.24v-0.24l0.479-0.48v-0.48l0.48-0.48
			h-0.24h0.24l0.239-0.24h0.24h0.24l0.24,0.24l0.24,0.24l0.479,0.48h-0.24h0.24l0.24,0.24l0.24,0.24h0.239l0.24,0.24h0.24h0.24
			l0.479-0.48v-0.24l0.24-0.24v-0.48l0.24-0.24v-0.96l0.479-0.48v-0.24h0.24l0.24,0.24l0.239,0.24v0.24l0.24,0.24l0.24-0.48v-2.88
			l0.24-2.64v-13.68l0.239-5.04v-6l0.24,0.96v10.32l0.24,7.2v11.28l0.24,0.48v0.48l0.24,0.24v1.68l0.239,0.24h0.48v-0.48l0.24-0.24
			v-1.2l0.239-0.48v-0.48l0.48-0.48v-0.24h0.24h0.239h0.24l0.24-0.24h0.24l0.479-0.48v-0.48l0.24-0.24v-0.48l0.24-0.24v-0.48
			l0.239-0.24v-0.72l0.24-0.24l0.24-0.24h0.24h0.239l0.24,0.24v0.24l0.24,0.48v0.96l0.24,0.48v0.72l0.24,0.48v0.72l0.239,0.72v0.72
			l0.24,0.48v0.96l0.24,0.24v0.48h0.24h0.239h0.24l0.24-0.24l0.24-0.24h0.239l0.24-0.24H353l0.24-0.24l0.239-0.24v-0.24l0.48-0.48
			v-0.24h0.24l0.479,0.48v0.48l0.48,0.48h-0.24h0.24l0.239,0.24h0.24h0.24 M250.52,164.92l0.24,0.48v0.72l0.24,0.24l0.48,0.48h-0.24
			l0.24-0.24l0.48-0.48v-0.479l0.48-0.48v-0.24l0.48-0.48v-0.48l0.24-0.24l0.24-0.24V163l0.24-0.24l0.48-0.48v-0.24l0.24-0.24v-0.48
			l0.24-0.24v-0.96l0.24-0.479v-0.48l0.24-0.24l0.24-0.24l0.24,0.24v0.24l0.24,0.24v0.72l0.24,0.24v1.2l0.24,0.24v0.96l0.24,0.48
			v1.44l0.24,0.24v0.48l0.24,0.24v0.24l0.24,0.24v0.48l0.48,0.48v0.24l0.24-0.24l0.48-0.48h-0.24h0.24l0.24-0.24l0.24-0.24h0.24
			h0.24h0.24l0.24-0.24l0.24,0.24h0.24h0.24h0.24l0.24,0.24h0.24l0.24-0.24h0.24h0.24l0.24,0.24h0.24h0.24l0.24,0.24l0.24,0.24
			l0.24-0.24l0.24-0.24h0.24h0.24l0.24-0.24l0.24-0.24l0.24-0.24h0.24h0.24l0.24-0.24h0.24h0.24h0.24h0.24h0.24h0.24h0.24h0.24h0.24
			l0.24-0.24h0.24l0.24-0.24l0.24-0.24H269h0.24h0.24h0.24h0.24h0.24l0.24,0.24h0.24l0.24-0.24h0.24h0.24h0.24h0.48l0,0l0.24,0.24
			h0.24h0.24h0.24h0.24l0.24-0.24l0.24-0.24l0.48-0.48h-0.24h0.24h0.24l0.24-0.24l0.24,0.24h0.24h0.24l0.24,0.24h0.24h0.24
			l0.24,0.24l0.48,0.48h-0.24l0.24-0.48l0.24-0.72v-7.44l0.24-4.08v-9.6l0.24-4.56v-2.64v1.68l0.24,5.04v13.44l0.24,5.04v3.12
			l0.24-0.48v-0.72V163l0.24,0.96v0.96l0.24,0.24h0.24h0.24h0.24h0.24h0.24l0.24-0.24h0.24h0.24l0.24-0.24l0.24-0.24l0.24-0.24
			v-0.48l0.24-0.24V163l0.24-0.24v-1.2l0.24-0.48v-1.2l0.24-0.24v-0.96l0.24-0.24h0.24h0.24h0.24l0.24,0.24v0.48l0.24,0.48v0.48
			l0.24,0.48v1.68l0.24,0.48v0.72l0.24,0.72v0.96l0.24,0.48v0.72l0.24,0.48v0.72l0.24,0.24l0.24,0.24v-0.24l0.24-0.24v-0.48
			l0.24-0.24v-0.48l0.48-0.48h-0.24h0.24h0.24l0.24,0.24l0.24,0.24l0.24,0.24l0.24,0.24h0.24l0.24,0.24h0.24l0.24,0.24h0.24
			l0.24,0.24h0.24l0.24-0.24l0.24-0.24v-0.48l0.48-0.48h-0.24h0.24h0.24h0.24h0.24h0.24l0.24,0.24h0.24l0.24,0.24l0.24,0.24
			l0.24,0.24h0.24l0.24,0.24h0.24l0.24-0.24v-0.24l0.24-0.24v-0.72l0.24-0.24v-0.72l0.24-0.24v-0.24l0.48,0.48h-0.24l0.24-3.6
			l0.24-2.88v-8.4l0.24-5.28V134.2l0.24,0.96v9.12l0.24,6.48v11.76l0.24,0.48v0.72l0.24,0.48v2.4l0.24,0.72v0.48l0.24,0.24
			l0.24-0.24v-0.48l0.24-0.24l0.24-0.24l0.24-0.24v-0.24l0.24-0.24v-0.72l0.24-0.24v-0.24l0.24-0.24v-0.96l0.24-0.24V163l0.24-0.24
			v-0.48l0.48-0.48H299h0.24l0.479-0.48v-0.24l0.24-0.24v-0.24l0.24-0.24v-0.24l0.239-0.24v-0.72h0.24l0.24,0.24l0.24,0.24v0.48
			l0.239,0.48v0.72l0.24,0.24v0.48l0.24,0.48V163l0.24,0.24v0.96l0.24,0.24v0.72l0.239,0.24v0.72l0.24,0.24v0.24l0.24,0.24v0.24
			l0.479,0.48v0.24h0.24h0.24 M194.6,165.88l0.24-0.24h0.24l0.24-0.24h0.24h0.24l0.24-0.24l0.24,0.24v0.24l0.48,0.479h-0.24
			l0.24-0.24l0.24-0.24l0.24-0.24h0.24h0.24l0.24-0.24h0.24l0.24-0.24l0.48-0.48v-0.24h0.24h0.24l0.24,0.24h0.24l0.24,0.24h0.24
			h0.24h0.24l0.24-0.24h0.24l0.24-0.24h0.24l0.24,0.24l0.24,0.24l0.24-0.24l0.24-0.24v-0.48l0.24-0.24l0.24-0.24v0.48l0.24,0.24
			v0.48h0.24v-0.72l0.24-1.44v-4.8l0.24-3.84v-13.92l0.24-3.36v-1.44v1.2l0.24,3.36V151l0.24,5.28v5.28l0.24,0.24v0.96l0.24,0.96
			v2.16l0.48,0.48h-0.24l0.24-0.72l0.24-0.24h0.24l0.24-0.24h0.24h0.24h0.24l0.24,0.24l0.24-0.24h0.24l0.24-0.24l0.24-0.24v-0.72
			l0.24-0.48V163l0.24-0.48v-1.68l0.24-0.48v-0.72l0.24-0.24v-0.72l0.24-0.24h0.24l0.24,0.24l0.24,0.24v0.48l0.24,0.48v1.68
			l0.24,0.48v0.72l0.24,0.48v1.68l0.24,0.24v0.72l0.24,0.24v0.48l0.24,0.24h0.24l0.24-0.24l0.48-0.48v-0.24h0.24l0.24-0.24
			l0.24,0.24l0.24,0.24l0.24,0.24l0.24,0.24h0.24h0.24l0.24-0.24l0.24-0.24h0.24l0.24-0.24h0.24h0.24h0.24l0.24,0.24h0.24l0.24,0.24
			l0.24,0.24l0.24,0.24l0.24,0.24h0.24h0.24l0.24,0.24h0.24l0.24-0.24l0.24-0.24l0.24-0.24v-0.48l0.24-0.24l0.24-0.24h0.24
			l0.24-0.24l0.24-0.24l0.24-0.24l0.48-0.48h-0.24h0.24l0.24,0.24v0.48l0.24,0.72v-0.24v0.24l0.48,0.48h-0.24h0.24l0.24,0.24h0.24
			h0.24l0.24-0.24l0.24-0.24l0.24-0.24v-0.48l0.24-0.24v-0.48l0.24-0.24v-0.48h0.24l0.24-0.24l0.24-0.24h0.24v-3.36l0.24-2.64v-8.16
			l0.24-4.8v-8.64l0.24-1.68v8.64l0.24,6.48v10.8l0.24,1.68v1.2l0.24,0.72v2.4l0.48,0.48H227h0.24l0.24-0.24l0.24-0.24v-0.24
			l0.24-0.24v-0.72h0.24l0.24-0.24h0.24l0.24-0.24h0.24l0.24-0.24l0.24-0.24v-0.48l0.24-0.24V163l0.48-0.48v-0.24l0.24-0.48v-0.96
			l0.24-0.24v-0.72l0.24-0.24v-0.48l0.24-0.24v-0.96h0.24l0.24,0.24v0.24l0.24,0.48v0.72l0.24,0.24v1.92l0.24,0.48v0.96l0.24,0.48
			v1.44l0.24,0.24v0.72l0.24,0.24v0.48l0.24,0.24h0.24l0.24,0.24h0.24l0.48-0.48v-0.24l0.48-0.48v-0.24h0.24h0.24h0.24l0.24,0.24
			h0.24l0.24,0.24h0.24h0.24h0.24h0.24l0.48-0.48v-0.24l0.24-0.24l0.24,0.24l0.48,0.479v0.24l0.24,0.24h0.24l0.24,0.24h0.24
			l0.24-0.24l0.24-0.24h0.24l0.24-0.24h0.24l0.24-0.24h0.24h0.24l0.24,0.24h0.24h0.24h0.24l0.24-0.24h0.24l0.24-0.24h0.24h0.24
			l0.24-0.24h0.24h0.24H245l0.24-0.24h0.24l0.24-0.24l0.24-0.24l0.24-0.24h0.24l0.24-0.24h0.24h0.24l0.24,0.24h0.24h0.24l0.24,0.24
			h0.24l0.24,0.24l0.24,0.24v-0.24l0.24-0.48v-2.88l0.24-2.64v-12.96l0.24-5.28V133l0.24-0.24v12.96l0.24,6.48v8.4l0.24,0.96v0.96
			l0.24,0.72v1.68 M137,166.12l0.24,0.24v-1.68l0.24-2.16v-6.48l0.24-4.08v-10.8l0.24-0.96v4.32l0.24,4.56v12.48l0.24,1.92v1.2
			l0.24,0.72v0.48l0.24,0.24h0.24l0.24-0.24l0.24-0.24l0.24-0.24h0.24l0.24-0.24h0.24l0.24-0.24h0.24h0.24l0.24-0.24l0.24-0.24
			l0.24-0.72v0.24v-0.24l0.24-0.24v-0.24l0.24-0.24v-1.2l0.24-0.24v-0.96l0.24-0.24v-0.96h0.24h0.48v0.48l0.24,0.48v0.72l0.24,0.24
			v0.48l0.24,0.48V163l0.24,0.48v1.2l0.24,0.48v0.96l0.24,0.24v0.72h0.24l0.24,0.24h0.24l0.48-0.48v-0.24l0.24-0.24h0.24l0.24-0.24
			h0.24h0.24h0.24l0.24-0.24h0.24l0.24,0.24h0.24l0.24,0.24h0.24h0.24h0.24l0.24,0.24h0.24h0.24h0.24l0.24,0.24h0.24l0.24-0.24h0.24
			h0.24h0.24l0.24-0.24h0.24h0.24l0.24,0.24h0.24h0.24h0.24l0.24-0.24h0.24l0.24-0.24l0.48-0.479v-0.24l0.24-0.24h0.24l0.24-0.24
			h0.24l0.24,0.24l0.24,0.24v-1.2l0.24-1.68v-9.36l0.24-4.32v-8.64l0.24-2.64v-0.24v6l0.24,5.76v10.32l0.24,2.16v1.2l0.24,0.48v1.68
			l0.48,0.72v0.24l0.24,0.24l0.24-0.24h0.24l0.48-0.48v-0.24l0.24-0.24l0.24-0.24l0.24-0.24l0.24-0.24l0.24-0.24l0.24-0.24V163
			l0.24-0.24l0.48-0.48v-0.48l0.24-0.24v-0.72l0.48-0.48v-0.24h0.24l0.24,0.24l0.24,0.24v1.2l0.24,0.24v0.72l0.24,0.24v0.72
			l0.24,0.24l0.24,0.24l0.24,0.24l0.48,0.48v0.24l0.48,0.48v0.24l0.24,0.24h0.24l0.24,0.24h0.24l0.24,0.24h0.24H167l0.24,0.24
			l0.24-0.24l0.24-0.24v-0.48l0.24-0.24h0.24h0.24h0.24h0.24h0.24h0.24h0.24h0.24h0.24l0.24,0.24h0.24h0.24h0.24l0.24-0.24
			l0.24-0.24h0.24h0.24h0.24l0.24,0.24l0.24,0.24l0.24,0.24l0.48,0.48h-0.24h0.24l0.24-0.24l0.24-0.24l0.24-0.24l0.24-0.24h0.24
			h0.24h0.24l0.24-0.24l0.24-0.24h0.24l0.24-0.24h0.24h0.24h0.24h0.24l0.24-0.24h0.24h0.24h0.24h0.24l0.24-0.24l0.24-0.24H179v-3.84
			l0.24-2.88v-7.92l0.24-4.8v-9.36l0.24,0.96V145l0.24,6v9.6l0.24,0.48v0.96l0.24,1.2v2.4l0.48,0.479h-0.24h0.24l0.24,0.24h0.24
			h0.24h0.24h0.24h0.24l0.24-0.24l0.24-0.24l0.24-0.24v-1.2l0.24-0.24v-0.72l0.48-0.48v-0.48l0.24-0.24v-0.48l0.24-0.48v-0.72
			l0.48-0.48v-0.72l0.24-0.24h0.48v0.48l0.24,0.479v1.2l0.24,0.24v0.48l0.24,0.48V163l0.24,0.24v0.48l0.24,0.24l0.24,0.24l0.24,0.24
			v0.24l0.24,0.24v0.72l0.24,0.24v0.48l0.24,0.24v0.24l0.24,0.24v0.24l0.48,0.48h-0.24h0.24h0.24h0.24l0.24-0.24l0.24-0.24v-0.48
			l0.24-0.24v-0.24l0.24-0.24v-0.24l0.24-0.24h0.24h0.24H191h0.24h0.24h0.24h0.24h0.24h0.24l0.24,0.24l0.24,0.24h0.24h0.24
			l0.24,0.24h0.24h0.24l0.24-0.24l0.24-0.24 M102.44,152.44V145l0.24-2.16v-0.96l0.24,0.48v0.96l0.48,0.48v0.24l0.24,0.24l0.24,0.24
			h0.24l0.24,0.24h0.24h0.24l0.24-0.24l0.24-0.24l0.24-0.24v-0.72l0.24-0.24v-0.48l0.48-0.48v-0.24l0.24,0.24l0.24,0.24v0.24
			l0.24,0.48v1.44l0.24,0.72v1.44l0.24,0.72v1.2l0.24,0.72v1.92l0.24,0.48v0.96l0.24,0.24v0.48l0.24,0.24v0.24l0.24,0.24v0.96
			l0.24,0.24v0.72l0.48,0.48v0.24h0.24l0.24,0.24h0.24l0.24,0.24l0.24,0.24l0.24,0.24v0.24l0.48,0.48v0.24l0.24,0.24v0.24l0.24,0.24
			v0.48l0.24,0.24v0.48l0.48,0.48v0.48l0.24,0.24v0.48l0.48,0.48H113h0.24l0.24,0.24h0.24h0.24h0.24l0.24,0.24l0.48,0.48v0.72
			l0.24,0.48l0.48,0.48v0.24h0.24h0.24l0.24,0.24l0.24,0.24h0.24l0.24,0.24l0.24-0.24l0.24-0.96v-6.72l0.24-3.12v-5.76l0.24-1.44
			v-0.48v0.24l0.24,0.96v7.2l0.24,2.88v4.32l0.24,1.44v0.72l0.24,0.24l0.24,0.24h0.24l0.24,0.24h0.24l0.24-0.24h0.24l0.24-0.24
			l0.48-0.48v-0.24l0.24-0.24v-0.24l0.24-0.24l0.48-0.48v-0.24l0.24-0.24v-0.96l0.24-0.48v-0.72l0.24-0.24v-0.48l0.24-0.24
			l0.24-0.24l0.24-0.24v0.24l0.24,0.24v0.48l0.24,0.72v1.44l0.24,0.48v0.72l0.24,0.48v1.2l0.24,0.479v0.72l0.24,0.24v0.72l0.24,0.24
			v0.72l0.24,0.24v0.48l0.48,0.48h-0.24h0.24l0.24-0.24l0.24-0.24v-0.24l0.24-0.48v-0.72l0.24-0.24h0.24l0.24-0.24l0.24,0.24h0.24
			l0.24,0.24l0.24,0.24l0.24,0.24l0.24,0.24l0.48,0.48v0.48l0.24,0.24h0.24h0.24l0.24-0.24v-0.24l0.24-0.24V169l0.24-0.24v-0.48H131
			l0.24-0.24h0.24h0.24h0.24h0.24h0.24h0.24h0.24l0.24-0.24h0.24h0.24l0.24-0.24h0.24l0.24-0.24h0.24h0.24l0.24-0.24l0.24-0.24
			l0.24-0.24v-0.24l0.48-0.48v-0.24h0.24h0.24H137v0.479"/>
	</g>
	<text transform="matrix(0 -1 1 0 82.042 184.1094)" fill="#231F20" font-family="'Times-Roman'" font-size="10">Amplitude (mV)</text>
	<text transform="matrix(1 0 0 1 123.0811 115.9688)" fill="#231F20" font-family="'Times-Roman'" font-size="12">AF rhythm</text>
	<text transform="matrix(1 0 0 1 414.917 115.9688)" fill="#231F20" font-family="'Times-Roman'" font-size="12">Recording−−A00004</text>
	<rect x="102.44" y="210.04" fill-rule="evenodd" clip-rule="evenodd" fill="#FFFFFF" width="416.879" height="77.28"/>
	<polyline fill="none" stroke="#FFFFFF" stroke-width="0.5" stroke-linejoin="round" stroke-miterlimit="10" points="102.44,287.32 
		102.44,210.04 519.319,210.04 519.319,287.32 102.44,287.32 	"/>
	<path fill="none" stroke="#000000" stroke-width="0.5" stroke-linejoin="round" stroke-miterlimit="10" d="M102.44,287.32h416.879
		 M102.44,287.32v-77.28 M102.44,287.32V283 M143.96,287.32V283 M185.72,287.32V283 M227.48,287.32V283 M269,287.32V283
		 M310.76,287.32V283 M352.52,287.32V283 M394.04,287.32V283 M435.8,287.32V283 M477.56,287.32V283 M519.319,287.32V283
		 M102.44,287.32h4.08"/>
	<text transform="matrix(1 0 0 1 88.9951 290.6719)" fill="#231F20" font-family="'Times-Roman'" font-size="10">−2</text>
	
		<line fill="none" stroke="#000000" stroke-width="0.5" stroke-linejoin="round" stroke-miterlimit="10" x1="102.44" y1="252.76" x2="106.52" y2="252.76"/>
	<text transform="matrix(1 0 0 1 94.7607 256.1172)" fill="#231F20" font-family="'Times-Roman'" font-size="10">0</text>
	
		<line fill="none" stroke="#000000" stroke-width="0.5" stroke-linejoin="round" stroke-miterlimit="10" x1="102.44" y1="218.439" x2="106.52" y2="218.439"/>
	<text transform="matrix(1 0 0 1 94.7607 221.7969)" fill="#231F20" font-family="'Times-Roman'" font-size="10">2</text>
	<g>
		<defs>
			<rect id="SVGID_7_" x="102.44" y="210.04" width="417.12" height="77.521"/>
		</defs>
		<clipPath id="SVGID_8_">
			<use xlink:href="#SVGID_7_"  overflow="visible"/>
		</clipPath>
		
			<path clip-path="url(#SVGID_8_)" fill="none" stroke="#0000FF" stroke-width="0.5" stroke-linejoin="round" stroke-miterlimit="10" d="
			M459.8,251.08l0.24,0.24l0.239,0.48v0.719l0.48,0.48h-0.24h0.24H461h0.239h0.24h0.24l0.24,0.24v0.24l0.24,0.24v0.238v-0.238
			l0.239-0.721v-2.881l0.24-2.398v-9.602l0.24-2.879v-1.92l0.24,0.959v11.041l0.239,3.359v3.121l0.24,0.719v1.439l0.24,0.721v0.48
			l0.24,0.24l0.479,0.479h-0.24h0.24l0.24-0.238h0.24l0.239,0.238h0.24l0.24-0.238h0.24l0.239-0.24l0.24-0.24h0.24l0.479-0.48v-0.24
			h0.24l0.24-0.24l0.24-0.24h0.24l0.239-0.238l0.24-0.24l0.24-0.24V253l0.479-0.48v-0.48l0.24-0.238h0.24l0.24-0.24h0.239h0.24
			l0.24,0.24l0.24,0.238h0.239h0.24l0.24-0.238h0.24l0.239,0.238l0.24-0.238l0.24,0.238l0.24,0.24h0.239l0.24-0.24l0.24,0.24h0.24
			l0.24-0.24l0.239-0.238l0.24,0.238h0.24h0.24l0.239,0.24l0.24,0.24h0.24l0.24,0.24v-0.24l0.239-0.24v-0.479h0.24l0.24-0.24h0.24
			l0.239-0.24l0.24-0.24l0.24-0.24h0.24l0.239,0.24v0.721l0.24,0.238l0.24,0.24H479h0.239l0.48,0.48V253h0.24l0.24,0.24l0.239,0.24
			l0.24-0.24v-3.121l0.24-2.639v-6.961l0.24-3.84v-4.561l0.239,1.441v7.92l0.24,4.32v5.76l0.24,0.479v0.48l0.24,0.48v1.439
			l0.239,0.24v0.48l0.48,0.48h-0.24h0.24h0.24h0.239l0.24-0.24h0.24l0.24-0.24l0.239-0.24l0.24-0.24h0.24H485h0.239l0.48-0.48v-0.24
			h0.24l0.24-0.238h0.239l0.24-0.24l0.48-0.48v-0.24l0.239-0.24l0.24-0.24l0.24-0.24l0.24-0.238l0.239-0.24h0.24h0.24l0.24,0.24
			h0.239l0.24,0.238h0.24l0.24,0.24h0.239h0.24h0.24l0.24,0.24h0.239l0.24-0.24h0.24h0.24h0.24h0.239l0.24,0.24l0.24,0.24h0.24
			h0.239l0.24-0.24h0.24h0.24h0.239l0.24-0.24h0.24h0.24l0.239-0.24v-0.238l0.48-0.48h-0.24h0.24h0.24l0.479,0.48v0.479h0.24
			l0.24,0.24l0.239,0.24h0.24l0.24,0.24l0.24,0.24h0.24l0.239,0.24l0.24-0.24v-2.16l0.24-1.92v-5.52l0.24-3.361v-6.959l0.239,0.24
			v5.039l0.24,3.84v8.641l0.24,0.721v0.238l0.24,0.24v1.68l0.239,0.721v0.721l0.24,0.24h0.24h0.24l0.239-0.24h0.24l0.24-0.24h0.24
			h0.239h0.24l0.24-0.24l0.24-0.24l0.239-0.24l0.24-0.24h0.24l0.24-0.24h0.24l0.239-0.238l0.24-0.24l0.24-0.24l0.24-0.24l0.239-0.24
			l0.24-0.24v-0.48l0.24-0.238h0.24l0.239-0.24l0.24-0.24h0.24l0.24,0.24l0.239,0.24h0.24l0.24,0.238h0.24h0.239h0.24h0.24H509
			l0.239,0.24h0.24h0.24h0.24l0.24,0.24h0.239h0.24l0.24-0.24h0.24h0.239h0.24h0.24h0.24l0.239,0.24l0.24-0.24h0.24h0.24
			l0.479-0.479v-0.24l0.24-0.24v-0.24h0.479v0.24l0.24,0.24v0.479l0.48,0.48v0.24l0.239,0.24h0.24h0.24l0.24-0.24V253l0.24,0.24
			v0.48l0.239,0.238l0.24-0.238v-1.92l0.24-1.922v-5.52l0.24-3.119v-7.201h0.239v4.32l0.24,3.6v8.641l0.24,1.201v0.719l0.24,0.48
			v1.199l0.239,0.24v0.721l0.24,0.24v0.479h0.24h0.24l0.239-0.238h0.24 M400.28,252.52h0.239h0.24H401h0.24h0.239h0.24h0.24
			l0.24,0.24h0.239h0.24h0.24h0.24l0.239-0.24h0.24l0.24-0.24l0.24-0.24l0.239-0.238l0.48-0.48h-0.24h0.24l0.24,0.24v0.479
			l0.479,0.48v0.24l0.24,0.24h0.24l0.24,0.24h0.239l0.24,0.24H407l0.479,0.479h-0.239l0.239-0.959l0.24-1.199v-7.682l0.24-3.6v-6
			l0.24-1.199v4.799l0.239,4.08v6.961l0.24,1.92v1.439l0.24,0.24v1.439l0.24,0.721v0.721l0.239,0.238h0.24h0.24h0.24h0.239
			l0.24-0.238h0.24l0.24-0.24l0.239-0.24h0.24l0.24-0.24l0.48-0.48h-0.24h0.24l0.239-0.24l0.24-0.24l0.24-0.238l0.24-0.24
			l0.239-0.24l0.48-0.48v-0.24l0.24-0.24h0.239l0.24-0.24l0.24-0.238h0.24h0.239l0.24,0.238h0.24l0.24,0.24l0.239,0.24h0.24
			l0.24,0.24h0.24l0.239,0.24l0.24,0.24l0.24,0.24l0.24,0.24l0.24,0.238h0.239l0.24,0.24H419h0.24h0.239h0.24h0.24h0.24l0.239-0.24
			h0.24l0.24-0.238h0.24l0.239-0.24h0.24l0.24-0.24h0.24l0.239-0.24l0.24-0.24l0.48-0.48v-0.24l0.239-0.238v0.479l0.24,0.48V253
			l0.24,0.24l0.24,0.24l0.24-0.24l0.239-0.24v-1.68l0.24-0.961v-2.4l0.24-1.199v-1.199l0.24,0.24v5.52l0.239,3.84V265l0.24,4.32v6
			h0.24v-2.16l0.24-1.439v-4.801l0.239-2.16v-4.08l0.24-1.68v-2.641l0.24-0.48v-1.199l0.24-0.721v-1.68l0.239-0.24v-0.719h0.24
			l0.24-0.24h0.24l0.239-0.24l0.24-0.24l0.24-0.24l0.24-0.24l0.479-0.479v-0.24l0.24-0.24v-0.48l0.24-0.24v-0.48l0.24-0.238v-0.24
			l0.239-0.24v-0.48l0.48-0.48v-0.24l0.24-0.238l0.239-0.24l0.24-0.24h0.24l0.24,0.24v0.479l0.239,0.48v1.439l0.24,0.48v0.961
			l0.24,0.719v0.721l0.24,0.24v1.439l0.239,0.24v0.48l0.24,0.24v0.24l0.24,0.238v0.24l0.24,0.24v0.48h0.239h0.24h0.24h0.24h0.239
			h0.24h0.24l0.24-0.24l0.24,0.24l0.239,0.24l0.24-0.24l0.24-0.24l0.24,0.24h0.239h0.24l0.24-0.24h0.24h0.239l0.24,0.24h0.24h0.24
			l0.239-0.24l0.24-0.24h0.24h0.24l0.239,0.24l0.24-0.24l0.24-0.24v-0.24l0.24-0.238v-0.48l0.239-0.24h0.24h0.24l0.24,0.24v0.48
			l0.479,0.479v0.24l0.24-0.24H443h0.24l0.239,0.24h0.24h0.24l0.24-0.24V253l0.239-1.439v-4.801l0.24-3.359v-8.641l0.24-0.959v3.359
			l0.24,3.6v10.801l0.239,0.719v0.24l0.24,0.24v1.92l0.48,0.961h-0.24h0.24h0.239h0.24h0.24l0.24-0.24l0.239-0.24h0.24l0.24-0.24
			h0.24h0.24h0.239l0.48-0.48v-0.24h0.24l0.239-0.24h0.24l0.24-0.238l0.24-0.24l0.239-0.24h0.24l0.24-0.24l0.24-0.24l0.479-0.48
			v-0.24l0.48-0.479v-0.24h0.239l0.24,0.24h0.24h0.24h0.239h0.24l0.24,0.24h0.24h0.24h0.239l0.24,0.238H455h0.24h0.239h0.24h0.24
			h0.24h0.239h0.24h0.24l0.24,0.24h0.239h0.24l0.24,0.24h0.24l0.239-0.24l0.24-0.24l0.24-0.238l0.479-0.48h-0.239h0.239l0.24-0.24
			h0.24 M341.479,252.52h0.24h0.24l0.24,0.24h0.239h0.24h0.24l0.24,0.24h0.239h0.24h0.24h0.24l0.239,0.24h0.24h0.24l0.24,0.24
			l0.239-0.24h0.24l0.24-0.24h0.24h0.24h0.239h0.24H347h0.24h0.239l0.24-0.24v-0.48l0.24-0.24v-0.238l0.24-0.24l0.239,0.24
			l0.24,0.238v0.48l0.24,0.24l0.479,0.48h-0.239h0.239l0.24,0.24l0.24-0.24l0.24-0.24v-0.721l0.239-0.719v-1.92l0.24-0.961v-2.4
			l0.24,0.24v1.201l0.24,1.92v8.16l0.239,3.119v4.801l0.24,1.199v0.24v-0.721l0.24-1.68v-5.279l0.24-1.201v-1.92l0.24-0.959v-1.92
			l0.239-0.24l0.24-0.24l0.24-0.24h0.24h0.239h0.24l0.24-0.24h0.24l0.239-0.24h0.24l0.24-0.24v-0.479l0.24-0.24l0.479-0.48v-0.24
			l0.24-0.24v-0.48l0.24-0.238l0.239-0.24v-0.24l0.48-0.48v-0.24h0.24h0.239l0.24,0.24l0.24,0.24l0.24,0.24v0.719l0.24,0.24v0.48
			l0.239,0.48v1.439l0.24,0.24v0.48l0.48,0.48v0.238l0.479,0.48h-0.24h0.24h0.24h0.24l0.239,0.24l0.24,0.24v-0.48l0.24-0.24v-0.24
			l0.24-0.238v-0.48l0.479,0.48v0.238h0.24h0.24h0.239h0.24h0.24l0.24-0.238h0.239h0.24l0.24,0.238h0.24h0.24h0.239h0.24H365h0.24
			h0.239l0.24-0.238h0.24h0.24l0.239-0.24v-0.24l0.24-0.24v-0.48l0.24-0.24h0.24h0.239l0.24,0.24v0.24l0.48,0.48v0.24h0.239
			l0.24,0.24h0.24h0.24l0.239,0.238l0.24,0.24v0.24l0.24,0.24v-0.48l0.24-0.479v-2.881l0.24-2.4v-8.879l0.239-2.641v-3.119
			l0.24,0.238v9.84l0.24,3.842v4.08l0.24,0.479V253l0.239,0.721v1.199l0.48,0.48h-0.24h0.24h0.24l0.239,0.24l0.24-0.24h0.24
			l0.24-0.24h0.239l0.24-0.24h0.24l0.24-0.24h0.239l0.24-0.24l0.24-0.24h0.24l0.239-0.24l0.24-0.238h0.24l0.24-0.24l0.24-0.24
			l0.239-0.24l0.24-0.24l0.48-0.48v-0.24l0.239-0.238l0.24-0.24h0.24l0.24-0.24h0.239l0.24,0.24h0.24l0.24,0.24h0.239l0.48,0.479
			h-0.24l0.24-0.24h0.24h0.239h0.24h0.24h0.24h0.239h0.24h0.24h0.24h0.24h0.239h0.24H383h0.24h0.239h0.24h0.24h0.24h0.239h0.24h0.24
			l0.24-0.238l0.239-0.24l0.24-0.24l0.24-0.24v-0.24l0.24-0.24l0.239,0.24l0.24,0.24v0.721l0.48,0.479v0.48l0.239,0.24h0.24
			l0.24-0.24h0.24l0.24-0.24v0.24l0.239,0.24v0.48l0.24-0.24v-0.721l0.24-0.959v-4.32l0.24-3.121v-9.84l0.239-1.199v1.68l0.24,3.359
			v11.521l0.24,1.439v0.721l0.24,0.238v1.92l0.239,0.721v0.24l0.24,0.24v0.24l0.24,0.24h0.24h0.239h0.24l0.24-0.24l0.24-0.24h0.239
			l0.24-0.24h0.24l0.24-0.24h0.239l0.24-0.24h0.24l0.24-0.24l0.24-0.24l0.239-0.238l0.24-0.24l0.24-0.24h0.24l0.239-0.24l0.48-0.48
			v-0.24l0.479-0.479H396.2h0.239l0.24-0.24h0.24h0.24l0.239,0.24h0.24l0.24,0.238h0.24l0.239,0.24h0.24l0.24,0.24l0.24-0.24
			l0.239-0.24h0.24l0.24,0.24h0.24l0.24,0.24 M281.48,256.359l0.24-0.24l0.48,0.48v0.24h0.24h0.24l0.24-0.24l0.24-0.24h0.24h0.24
			h0.24l0.24-0.24h0.24l0.24-0.24l0.24-0.238h0.24l0.24-0.24h0.24l0.24-0.24h0.24l0.24-0.24h0.24l0.24-0.24H287h0.24h0.24l0.24-0.24
			l0.24-0.24h0.24l0.24,0.24l0.24-0.24h0.24h0.24l0.24-0.24l0.24-0.238l0.24-0.24l0.24-0.24v-0.48l0.24-0.24l0.24-0.24h0.24h0.24
			l0.24,0.24V253h0.24l0.24,0.24h0.24h0.24h0.24h0.24H293l0.24,0.24l0.24-0.24V250.6l0.24-1.92v-5.52l0.24-3.6v-6.24l0.24-1.201
			v6.721l0.24,4.32v6.48l0.24,1.68v1.199l0.24,0.24v0.48l0.24,0.48v0.959l0.24,0.48v0.48h0.24l0.24-0.24l0.24-0.24v-0.24l0.48,0.48
			v0.24l0.24-0.24v-0.24l0.48-0.48h-0.24h0.24l0.24,0.24l0.48-0.48v-0.24h0.24l0.24-0.24h0.24l0.24-0.238h0.24l0.239-0.24v-0.24
			l0.24-0.24l0.24-0.24h0.24l0.239-0.24v-0.24l0.48-0.479v-0.24l0.479-0.48h-0.239h0.239h0.24l0.24,0.24v0.24h0.48v-0.24h0.239
			l0.24,0.24h0.24l0.24,0.24h0.239l0.24,0.238l0.24-0.238h0.24h0.239h0.24H305h0.24h0.239l0.24,0.238h0.24h0.24h0.239h0.24h0.24
			h0.24l0.239,0.24h0.24h0.24h0.24h0.24l0.239-0.24h0.24h0.24l0.24-0.238l0.239-0.24v-0.48l0.24-0.24h0.24l0.24,0.24v0.24
			l0.239,0.24v0.479l0.24,0.24l0.48,0.48H311h0.24l0.239,0.24h0.24h0.24l0.24,0.24l0.239,0.24v0.24l0.24,0.238v-0.479l0.24-0.961
			v-3.84l0.24-2.879v-10.08l0.239-2.16V232.6v0.961l0.24,2.639v12.24l0.24,2.641v0.959l0.24,0.24v1.441l0.24,0.959v0.961h0.239
			l0.24-0.24v-0.24v0.24l0.24,0.24l0.24,0.238l0.239-0.238h0.24l0.24-0.24l0.24-0.24h0.239h0.24l0.24-0.24h0.24l0.239-0.24h0.24
			l0.48-0.48h-0.24h0.24l0.239-0.24l0.24-0.238l0.24-0.24l0.24-0.24l0.479-0.48v-0.24h0.24l0.24-0.24v-0.24l0.479-0.479h-0.239
			h0.239l0.24-0.24l0.24,0.24h0.24l0.239,0.24h0.24l0.24,0.238h0.24h0.239h0.24l0.24,0.24h0.24l0.239-0.24h0.24l0.24,0.24h0.24
			h0.239l0.24,0.24l0.24-0.24l0.24-0.24h0.239l0.24,0.24h0.24l0.24,0.24h0.24h0.239h0.24h0.24l0.24-0.24h0.239h0.24h0.24h0.24
			l0.239-0.24l0.48-0.479v-0.48h0.24l0.239,0.24l0.24,0.24v0.479l0.24,0.24l0.24,0.24l0.239,0.24l0.24,0.24h0.24l0.24,0.24h0.239
			l0.24,0.24v0.24l0.24,0.238l0.24-0.238v-4.561l0.24-3.121v-6.959l0.239-3.359V232.6v0.961l0.24,2.879v7.92l0.24,3.6v3.361
			l0.24,0.24v0.959l0.239,0.961v1.92l0.24,0.479v0.24l0.24-0.24v-0.238h0.479v0.238l0.24-0.238H335h0.24l0.239-0.24h0.24l0.24-0.24
			h0.24l0.239-0.24l0.24-0.24h0.24l0.24-0.24l0.239-0.24l0.24-0.24l0.24-0.238h0.24l0.479-0.48V253l0.24-0.24h0.24l0.24-0.24
			l0.479-0.48v-0.238h0.24h0.24l0.239,0.238h0.24l0.24,0.24h0.24l0.239,0.24 M220.76,253.48l0.24-0.24l0.24-0.24h0.24l0.24-0.24
			l0.48-0.48v-0.479l0.24-0.24l0.24-0.24h0.24h0.24h0.24h0.24l0.24,0.24h0.24l0.24,0.24h0.24h0.24h0.24h0.24h0.24l0.24,0.238h0.24
			h0.24h0.24h0.24h0.48l0,0h0.24h0.24h0.24h0.24l0.24,0.24h0.24h0.24h0.24l0.24,0.24h0.24h0.24h0.24h0.24l0.24-0.24h0.24l0.24-0.24
			l0.24-0.238l0.24-0.24l0.24-0.24h0.24l0.24,0.24v0.719l0.48,0.48V253l0.24,0.24l0.24,0.24h0.24l0.24,0.24h0.24l0.24,0.238h0.24
			l0.24-0.719V250.6l0.24-2.16v-9.359l0.24-2.881v-2.16l0.24,0.721v10.32l0.24,3.6v3.121l0.24,0.238v0.721l0.24,0.721v0.959
			l0.24,0.48v0.48l0.24,0.24h0.24h0.24h0.24l0.24-0.24h0.24l0.24-0.24h0.24h0.24l0.24-0.24H239l0.24-0.24h0.24l0.48-0.48v-0.24
			l0.24-0.238l0.24-0.24l0.24-0.24h0.24l0.24-0.24l0.24-0.24h0.24l0.24-0.24v-0.48l0.24-0.238l0.24-0.24h0.24l0.24,0.24h0.24h0.24
			l0.24,0.238h0.24l0.24,0.24h0.24h0.24l0.24,0.24H245h0.24h0.24l0.24-0.24h0.24h0.24h0.24h0.24h0.24h0.24l0.24,0.24h0.24h0.24h0.24
			h0.24h0.24h0.24h0.24l0.24,0.24l0.24-0.24l0.24-0.24l0.24,0.24h0.24h0.24h0.24H251l0.24-0.24v-0.479l0.24-0.24l0.24-0.24
			l0.24,0.24l0.24,0.24l0.24,0.238v0.24l0.24,0.24l0.24,0.24h0.24l0.24,0.24h0.24l0.24,0.24h0.24l0.48,0.48h-0.24l0.24-1.441
			l0.24-1.439v-4.801l0.24-3.359v-9.119l0.24-0.721v3.84l0.24,4.08v10.08l0.24,0.48v0.48l0.24,0.238v1.92l0.24,0.961v0.959
			l0.24-0.238l0.24-0.24H257h0.24h0.24h0.24h0.24l0.24-0.24h0.24l0.48-0.48v-0.24h0.24l0.24-0.24h0.24h0.24l0.24-0.24h0.24
			l0.48-0.479V253l0.24-0.24h0.24h0.24l0.24-0.24l0.24-0.24l0.24-0.24l0.24-0.238h0.24l0.24,0.238l0.24,0.24l0.24,0.24l0.24,0.24
			l0.24,0.24l0.24,0.24l0.24,0.24l0.24,0.24l0.24,0.238h0.24l0.24,0.24h0.24h0.24h0.24h0.24h0.24h0.24l0.24-0.24h0.24l0.24,0.24
			l0.24-0.24l0.24-0.238h0.24l0.24-0.24h0.24H269h0.24h0.24h0.24h0.24h0.24h0.24l0.24-0.24l0.24-0.48v-0.721l0.24-0.238v-0.721
			l0.24-0.48v-2.879l0.24-0.961v-1.92l0.24-0.24v2.641l0.24,2.879v8.641l0.24,5.279v11.762l0.24,0.959v-0.959l0.24-1.441v-3.119
			l0.24-1.92V262.6l0.24-1.92v-2.4l0.24-0.959v-1.68l0.24-0.48v-0.721l0.24-0.24V253l0.24-0.48v-0.959l0.24-0.721v-1.199l0.24-0.24
			l0.24-0.24l0.24-0.24l0.24-0.24h0.24l0.24-0.24l0.24-0.24v-0.24l0.24-0.238l0.24-0.24l0.48-0.48v-0.48l0.48-0.48v-0.479l0.24-0.24
			v-0.48l0.48-0.48v-0.24l0.24,0.24l0.24,0.24v0.721l0.24,0.24v0.719l0.24,0.721v1.68l0.24,0.48v0.959l0.24,0.48v1.201l0.24,0.238
			V253l0.24,0.48v0.719l0.24,0.24v0.48l0.48,0.48v0.719l0.24,0.24h0.24 M160.76,254.92l0.24,0.24h0.24h0.24h0.24l0.24-0.24h0.24
			l0.24-0.24h0.24l0.48-0.48h-0.24h0.24l0.24,0.24l0.24-0.24h0.24l0.24-0.24h0.24l0.24-0.238h0.24l0.48-0.48h-0.24h0.24l0.48-0.48
			v-0.24l0.24-0.24l0.24-0.24v-0.479h0.24l0.24,0.24H167l0.24,0.238h0.24h0.24h0.24h0.24h0.24l0.24,0.24l0.24,0.24h0.24h0.24h0.24
			h0.24h0.24l0.24-0.24l0.24,0.24h0.24h0.24h0.24l0.24,0.24l0.24-0.24h0.24h0.24l0.24,0.24l0.24-0.24H173l0.24-0.24h0.24l0.24-0.24
			l0.24-0.238l0.24-0.24l0.24-0.24h0.48v0.24l0.24,0.24v0.238l0.48,0.48h-0.24h0.24l0.24,0.24h0.24h0.24h0.24l0.24,0.24h0.24
			l0.24,0.24v-0.48l0.24-0.721v-4.08l0.24-2.879V235l0.24-1.439v-0.24v1.439l0.24,3.119v8.4l0.24,3.361v2.398l0.24,0.24v0.24
			l0.24,0.721v1.92l0.24,0.24h0.24h0.24h0.24h0.24h0.24h0.24l0.24-0.24l0.24-0.24h0.24l0.24-0.24h0.24l0.24-0.24l0.24-0.24
			l0.24-0.24l0.24-0.238l0.24-0.24l0.24-0.24h0.24l0.24-0.24l0.24-0.24l0.24-0.24l0.24-0.24v-0.479h0.24l0.24-0.24h0.24h0.24h0.24
			l0.48,0.479v0.24h0.24h0.24l0.24,0.24v0.24l0.24,0.24l0.24-0.24l0.24,0.24l0.48,0.48v0.24l0.24-0.24l0.24-0.24l0.24,0.24
			l0.24,0.24h0.24l0.24,0.238h0.24l0.24,0.24h0.24l0.24-0.24h0.24l0.24,0.24h0.24h0.24l0.24-0.24h0.24l0.24-0.238l0.24-0.24
			l0.24-0.24V253l0.48-0.48h-0.24h0.24l0.24,0.24l0.48,0.48v0.48l0.24,0.238l0.24,0.24l0.24-0.24v-0.479l0.24-0.721v-2.641
			l0.24-1.439v-2.4l0.24-0.719v1.92l0.24,2.639v7.92l0.24,4.561V273.4l0.24,1.68l0.24-0.961v-4.799l0.24-2.16V262.6l0.24-1.92v-2.4
			l0.24-0.959v-2.641l0.24-0.721V253l0.24-0.24v-0.721l0.24-0.238l0.24-0.24h0.24l0.24-0.24l0.24-0.24l0.48-0.48v-0.24h0.24
			l0.48-0.48V249.4l0.24-0.24v-0.721l0.24-0.24v-0.24l0.24-0.238v-0.48l0.24-0.24v-0.24l0.24-0.48v-0.24l0.48-0.479v-0.24h0.24
			l0.48,0.48v0.719l0.48,0.48v1.68L203,249.4v0.719l0.24,0.24v1.68l0.24,0.24v0.48l0.24,0.24v0.48l0.24,0.24v0.238l0.48,0.48v0.24
			h0.24l0.24,0.24h0.24h0.24l0.24-0.24h0.24h0.24h0.24h0.24l0.24,0.24h0.24h0.24h0.24h0.24h0.24l0.24-0.24h0.24h0.24H209h0.24h0.24
			h0.24h0.24h0.24l0.24-0.24h0.24h0.24l0.48-0.48v-0.238l0.24-0.24l0.24-0.24l0.24-0.24l0.24,0.24h0.24l0.24,0.24l0.24,0.24
			l0.24,0.238l0.24,0.24h0.24l0.24,0.24l0.24-0.24h0.24h0.24l0.24-0.24v-0.719l0.24-1.201v-4.318l0.24-3.361v-9.119l0.24-1.201
			v2.881l0.24,3.6v10.32l0.24,1.199v0.48l0.24,0.24v0.961l0.24,0.479v0.48l0.24,0.24l0.24,0.24l0.24,0.24h0.24h0.48h-0.24h0.24
			l0.24-0.24l0.24-0.24h0.24l0.24-0.24h0.24l0.24-0.24l0.24-0.24l0.24-0.24l0.24-0.238l0.24-0.24h0.24 M104.36,232.359l0.24,0.24
			v0.48l0.24,0.24v0.719l0.24,0.24v0.24l0.24,0.24l0.48,0.48h-0.24h0.24l0.24,0.24v0.479l0.24,0.48v0.48h0.24v-2.641l0.24-1.68
			v-4.799l0.24-2.641v-3.84l0.24,0.24v2.639l0.24,1.92v4.801l0.24,2.4v4.559l0.24,0.48v0.961l0.24,0.24v0.959l0.24,0.24v0.48
			l0.24,0.48v0.719l0.24,0.24v0.48l0.24,0.24v0.24l0.24,0.238v0.48l0.24,0.24v0.24l0.24,0.24l0.24,0.24l0.24,0.24v0.479h0.24h0.24
			l0.24,0.24h0.24h0.24l0.24,0.24l0.24,0.24l0.24,0.24l0.24,0.24l0.24,0.24l0.24,0.24l0.24,0.238l0.24,0.24h0.24l0.24,0.24
			l0.24,0.24l0.24,0.24v0.721l0.24,0.238v0.48l0.24,0.24v0.24l0.24,0.48v0.48l0.24,0.238v0.48l0.48,0.48v0.24l0.24,0.24v0.959
			l0.24,0.24l0.24,0.24h0.24h0.24h0.24h0.24h0.24h0.24h0.24h0.24h0.24l0.24,0.24h0.24h0.24h0.24h0.24l0.24-0.24l0.24-0.24l0.24-0.24
			l0.48-0.48h-0.24h0.24l0.24,0.24l0.24,0.24l0.24,0.24v0.24l0.24,0.24l0.24,0.24h0.24h0.24l0.24,0.24h0.24l0.24,0.238l0.24,0.24
			v-0.479l0.24-0.721v-5.52l0.24-2.641v-5.039l0.24-1.682v-0.479v0.719l0.24,1.68v4.08l0.24,2.4v5.52l0.24,0.721v0.961l0.24,0.238
			v0.961l0.24,0.24h0.24h0.24h0.24h0.24h0.24l0.24-0.24h0.24h0.24h0.24l0.24-0.24l0.24-0.24l0.24-0.24h0.24l0.24-0.24l0.24-0.238
			h0.24l0.24-0.24l0.48-0.48v-0.24l0.24-0.24l0.24-0.24v-0.479l0.24-0.24v-0.24l0.24-0.24l0.24-0.24h0.24l0.24,0.24h0.24h0.24h0.24
			h0.24l0.24,0.24l0.24,0.24h0.24l0.24,0.24l0.24,0.238h0.24h0.24h0.24l0.24-0.238h0.24l0.24-0.24h0.24h0.24l0.24-0.24h0.24h0.24
			L137,253l0.24-0.24l0.24-0.24l0.24-0.24l0.24-0.24l0.24-0.479v-0.721l0.24-0.24h0.24h0.24h0.24h0.24l0.24-0.24h0.24l0.24-0.24
			h0.24h0.24l0.24,0.24v0.48l0.24-0.24v-0.24l0.24-0.719v-6l0.24-3.361v-6.479l0.24-1.682v1.201l0.24,3.119v12.24l0.24,2.16v0.48
			l0.24,0.24v0.719l0.24,0.48v1.199l0.24,0.48v0.48h0.24h0.24l0.24,0.24h0.24l0.24,0.24h0.24l0.48-0.48h-0.24h0.24l0.48,0.48v0.24
			l0.48-0.48h-0.24h0.24h0.24h0.24h0.24h0.24l0.24-0.24l0.48-0.48h-0.24h0.24l0.24-0.24l0.24-0.24l0.24-0.238v-0.24l0.48-0.48h-0.24
			h0.24H149l0.24,0.24l0.24,0.24h0.24l0.24,0.24h0.24l0.24,0.238h0.24h0.24l0.24,0.24h0.24l0.24-0.24h0.24l0.24-0.238h0.24h0.24
			h0.24h0.24h0.24h0.24h0.24h0.24h0.24l0.24-0.24l0.24-0.24L155,253l0.24-0.24l0.24-0.24l0.24-0.24l0.24-0.24l0.24-0.238l0.48,0.479
			V253l0.24,0.24l0.24,0.24h0.24h0.24h0.24h0.24h0.24l0.24,0.24l0.24-0.24v-2.16l0.24-1.92v-5.521l0.24-3.359v-6.719l0.24,0.238v6
			l0.24,4.08v7.201l0.24,0.48v0.479l0.24,0.24v1.68l0.48,0.721h-0.24h0.24 M102.44,239.801v-7.682l0.24-2.398v-1.201l0.24,0.48v0.24
			l0.24,0.24l0.24,0.24l0.24,0.238l0.48,0.48v0.24l0.24,0.24v1.439"/>
	</g>
	<text transform="matrix(0 -1 1 0 82.042 282.2734)" fill="#231F20" font-family="'Times-Roman'" font-size="10">Amplitude (mV)</text>
	<text transform="matrix(1 0 0 1 123.0811 214.125)" fill="#231F20" font-family="'Times-Roman'" font-size="12">Other rhythm</text>
	<text transform="matrix(1 0 0 1 414.917 214.125)" fill="#231F20" font-family="'Times-Roman'" font-size="12">Recording−−A00077</text>
	<rect x="102.2" y="308.199" fill-rule="evenodd" clip-rule="evenodd" fill="#FFFFFF" width="417.119" height="77.52"/>
	<polyline fill="none" stroke="#FFFFFF" stroke-width="0.5" stroke-linejoin="round" stroke-miterlimit="10" points="102.2,385.719 
		102.2,308.199 519.319,308.199 519.319,385.719 102.2,385.719 	"/>
	<path fill="none" stroke="#000000" stroke-width="0.5" stroke-linejoin="round" stroke-miterlimit="10" d="M102.2,385.719h417.119
		 M102.2,385.719v-77.52 M102.2,385.719V381.4"/>
	<text transform="matrix(1 0 0 1 99.7998 397.4766)" fill="#231F20" font-family="'Times-Roman'" font-size="10">0</text>
	
		<line fill="none" stroke="#000000" stroke-width="0.5" stroke-linejoin="round" stroke-miterlimit="10" x1="143.96" y1="385.719" x2="143.96" y2="381.4"/>
	<text transform="matrix(1 0 0 1 141.5576 397.4766)" fill="#231F20" font-family="'Times-Roman'" font-size="10">2</text>
	
		<line fill="none" stroke="#000000" stroke-width="0.5" stroke-linejoin="round" stroke-miterlimit="10" x1="185.72" y1="385.719" x2="185.72" y2="381.4"/>
	<text transform="matrix(1 0 0 1 183.3232 397.4766)" fill="#231F20" font-family="'Times-Roman'" font-size="10">4</text>
	
		<line fill="none" stroke="#000000" stroke-width="0.5" stroke-linejoin="round" stroke-miterlimit="10" x1="227.48" y1="385.719" x2="227.48" y2="381.4"/>
	<text transform="matrix(1 0 0 1 225.0811 397.4766)" fill="#231F20" font-family="'Times-Roman'" font-size="10">6</text>
	
		<line fill="none" stroke="#000000" stroke-width="0.5" stroke-linejoin="round" stroke-miterlimit="10" x1="269" y1="385.719" x2="269" y2="381.4"/>
	<text transform="matrix(1 0 0 1 266.6045 397.4766)" fill="#231F20" font-family="'Times-Roman'" font-size="10">8</text>
	
		<line fill="none" stroke="#000000" stroke-width="0.5" stroke-linejoin="round" stroke-miterlimit="10" x1="310.76" y1="385.719" x2="310.76" y2="381.4"/>
	<text transform="matrix(1 0 0 1 305.9639 397.4766)" fill="#231F20" font-family="'Times-Roman'" font-size="10">10</text>
	
		<line fill="none" stroke="#000000" stroke-width="0.5" stroke-linejoin="round" stroke-miterlimit="10" x1="352.52" y1="385.719" x2="352.52" y2="381.4"/>
	<text transform="matrix(1 0 0 1 347.7217 397.4766)" fill="#231F20" font-family="'Times-Roman'" font-size="10">12</text>
	
		<line fill="none" stroke="#000000" stroke-width="0.5" stroke-linejoin="round" stroke-miterlimit="10" x1="394.04" y1="385.719" x2="394.04" y2="381.4"/>
	<text transform="matrix(1 0 0 1 389.2451 397.4766)" fill="#231F20" font-family="'Times-Roman'" font-size="10">14</text>
	
		<line fill="none" stroke="#000000" stroke-width="0.5" stroke-linejoin="round" stroke-miterlimit="10" x1="435.8" y1="385.719" x2="435.8" y2="381.4"/>
	<text transform="matrix(1 0 0 1 431.0029 397.4766)" fill="#231F20" font-family="'Times-Roman'" font-size="10">16</text>
	
		<line fill="none" stroke="#000000" stroke-width="0.5" stroke-linejoin="round" stroke-miterlimit="10" x1="477.56" y1="385.719" x2="477.56" y2="381.4"/>
	<text transform="matrix(1 0 0 1 472.7607 397.4766)" fill="#231F20" font-family="'Times-Roman'" font-size="10">18</text>
	
		<line fill="none" stroke="#000000" stroke-width="0.5" stroke-linejoin="round" stroke-miterlimit="10" x1="519.319" y1="385.719" x2="519.319" y2="381.4"/>
	<text transform="matrix(1 0 0 1 514.5186 397.4766)" fill="#231F20" font-family="'Times-Roman'" font-size="10">20</text>
	
		<line fill="none" stroke="#000000" stroke-width="0.5" stroke-linejoin="round" stroke-miterlimit="10" x1="102.2" y1="368.92" x2="106.52" y2="368.92"/>
	<text transform="matrix(1 0 0 1 88.9951 372.2812)" fill="#231F20" font-family="'Times-Roman'" font-size="10">−5</text>
	
		<line fill="none" stroke="#000000" stroke-width="0.5" stroke-linejoin="round" stroke-miterlimit="10" x1="102.2" y1="341.32" x2="106.52" y2="341.32"/>
	<text transform="matrix(1 0 0 1 94.7607 344.6797)" fill="#231F20" font-family="'Times-Roman'" font-size="10">0</text>
	
		<line fill="none" stroke="#000000" stroke-width="0.5" stroke-linejoin="round" stroke-miterlimit="10" x1="102.2" y1="313.721" x2="106.52" y2="313.721"/>
	<text transform="matrix(1 0 0 1 94.7607 317.0781)" fill="#231F20" font-family="'Times-Roman'" font-size="10">5</text>
	<g>
		<defs>
			<rect id="SVGID_9_" x="102.44" y="308.199" width="417.12" height="77.76"/>
		</defs>
		<clipPath id="SVGID_10_">
			<use xlink:href="#SVGID_9_"  overflow="visible"/>
		</clipPath>
		
			<path clip-path="url(#SVGID_10_)" fill="none" stroke="#0000FF" stroke-width="0.5" stroke-linejoin="round" stroke-miterlimit="10" d="
			M480.68,343v2.4l0.24,1.68v1.68h0.24v-1.68l0.239,0.24l0.24,0.24v0.719l0.24,0.24V349l0.24,0.24v0.959l0.239-0.24l0.24-0.238
			v-0.961l0.24-0.721v-1.92l0.24-0.479v-0.24l0.239,0.24v1.199l0.24,0.48v0.24v-0.24l0.24-0.48v-2.16l0.24-0.959v-1.441l0.239-0.48
			v-0.719l0.24,0.24v0.959l0.24,0.24l0.24,0.24l0.239-0.24v-0.959l0.24-0.48v-0.48h0.48v2.16l0.24,0.48v0.48l0.239-0.24l0.24-0.721
			v-1.92l0.24-1.199v-2.16l0.24-0.721v-0.721l0.239,0.24v0.48h0.24l0.24-0.24v-0.721l0.24-0.719v-1.68l0.239-0.24v-0.721l0.24-0.48
			V331l0.24,0.24v0.48l0.24,0.479v1.441l0.239,0.719v1.201l0.24,0.479v0.48l0.24,0.24h0.24l0.239,0.24v0.48l0.24,0.24v0.719
			l0.24,0.48v1.439l0.24,0.48v1.199l0.239,0.721v0.961h0.24l0.24,0.238v1.201l0.24,0.719v1.682l0.24,0.959v2.16l0.239-0.24v-0.719
			l0.24-0.721v-2.641l0.24-1.199v-1.92l0.479-0.48v-0.24l0.24-0.24l0.24-0.24v-0.719l0.24-0.48v-0.961l0.239-0.238v-1.441
			l0.24-0.479h0.24v1.199l0.24,0.959v2.4l0.239,1.68v5.281l0.24,1.439v1.439l0.24,0.24v-1.199l0.24-0.961V349l0.239,0.721v-0.24
			v0.24l0.24,0.238V349l0.24-0.961V346.6l0.24,0.24v3.6l0.239,0.961v0.959l0.24,0.24v0.48l0.24,0.48v0.959l0.48,0.721v0.24
			l0.239,0.24l0.24,0.238v-0.238l0.24-0.961V351.4l0.24-1.68v-4.801l0.239-1.199v-2.641l0.24-0.721v0.48l0.24,0.24v-0.48l0.24-0.24
			v-0.24l0.239,0.24v0.24l0.24,0.48v0.48V340.6l0.24-0.959v-1.441l0.24-0.24l0.239,0.24v2.16l0.24,1.439v0.721v-0.24l0.24-0.48
			v-2.158l0.24-0.24v-0.721l0.239-0.24v-0.24v0.24l0.24,0.24v0.24l0.24,0.48v0.479l0.24-0.238v-0.24l0.239-0.48v-2.641l0.24-0.719
			v-1.201l0.24-0.24v-0.479l0.24,0.238l0.24,0.48v1.201l0.239,0.959v2.641l0.24,0.24v0.24l0.24,0.238v0.721l0.24-0.48V337
			l0.239-1.439V334.6l0.24-0.24v-0.24l0.24-0.24v0.48l0.24,0.24v0.721l0.239-0.24l0.24-0.24v-0.48l0.24,0.24v0.24l0.24,0.24v2.16
			l0.239,1.199v1.92l0.24,0.721v1.439l0.24,0.24V343l0.24-0.24v-0.721h0.239l0.24-0.24v-0.719l0.24-0.24v-0.721l0.24-0.479v-0.721
			l0.239-0.24v-0.48l0.48-0.479V337l0.24-0.48v-0.721l0.24-0.238l0.239,0.238v0.48l0.24,0.48v1.199l0.24,0.24v0.48l0.24,0.24
			l0.239-0.24v-0.24l0.24-0.24l0.24,0.24v1.439l0.24,0.48v0.961l0.239,0.479v0.24v-0.24l0.24-0.238v-0.24l0.24-0.24v-0.961
			l0.24-0.479v-0.721l0.239-0.48v-0.719l0.24-0.24h0.24l0.24-0.24v-0.721l0.239,0.24l0.24,0.721v2.879l0.24,0.961V343l0.24,0.959
			v1.441l0.239,0.24v0.479l0.24,0.48v1.199l0.24-0.238l0.24-0.24v-2.16l0.24-0.961v-1.92l0.239-0.959v-2.4l0.24,0.24l0.24,0.48
			v0.959l0.24,0.48v0.719l0.239-0.719v0.24v-0.24l0.24,0.24v0.719l0.24,0.24v0.24l0.24,0.48v0.959l0.239-0.238v-0.961l0.24-1.68
			v-4.801l0.24-1.199v-0.48l0.24,0.721v3.84l0.239,2.879v5.281h0.24 M442.279,351.641v3.84l0.24,0.959v0.48v-0.48l0.24-0.48V355
			l0.24-0.24v-2.641l0.239-1.439v-3.119l0.24-1.682v-3.119l0.24-1.199v-1.682v0.24l0.24,0.48v0.961l0.24,0.479v1.441l0.239,0.24
			v0.238l0.24,0.24v0.721l0.48,0.48h-0.24l0.24-0.24l0.239-0.48v-0.721l0.24-0.479v-1.201l0.24-0.48v-0.719l0.24-0.24v-0.961
			l0.239-0.479v-0.721h0.24l0.24-0.721V337l0.24-0.24v-0.48l0.239-0.719v-1.92l0.24-0.24v-0.961l0.24-0.48V331l0.479-0.48v-0.721
			l0.24,0.24l0.24,0.24v0.48l0.24,0.721v0.479l0.239,0.48v0.48l0.24,0.48v0.479l0.24,0.24l0.24,0.721v3.359l0.24,0.961v2.16
			l0.239,0.479v0.721l0.24,0.48v1.92l0.24,0.721v0.719l0.24,0.24v-2.641l0.239-1.92v-3.119h0.24v2.16l0.24,0.48l0.24-0.48v-0.961
			l0.239-0.24V339.4h0.24l0.24,0.24v0.238l0.24,0.24v0.961l0.239,0.24v0.719l0.24,0.48V343l0.24,0.48v0.959l0.479,0.48v0.721
			l0.24,0.238h0.24v-1.439l0.24-0.24v-0.959l0.239-0.721v-0.721l0.24,0.721v-0.24v0.24l0.24,0.48v1.439l0.24,0.48v1.199l0.24,0.48
			v0.961l0.239,0.479v0.24v-0.24l0.24-0.24v-0.238l0.24-0.24v-1.441l0.24-0.479v-0.48h0.239l0.24,0.24v0.24l0.24,0.24v1.439
			l0.24,0.48v1.199l0.239,0.721v0.24v-0.24l0.24-0.721v-1.439l0.24-0.48v-1.199l0.24-0.48v-0.24v0.721l0.239,0.719v0.721l0.24,0.48
			V349l0.24,0.24v0.24v-0.24l0.24-0.48v-2.641l0.239-1.439v-2.4l0.24-0.959V340.6l0.24-0.24v-0.24L461,339.4v-3.121l0.239-0.48
			l0.24,0.24v0.721l0.24,0.24v1.199l0.24,0.48v1.199l0.24,0.48v0.48v-0.24l0.239-0.48v-0.959l0.24-0.48v-0.48v0.24l0.24,0.721v1.199
			l0.24,0.721v0.24V340.6l0.239-0.48v-1.199l0.24-0.48v-0.959h0.24v1.199l0.24,0.48v0.48l0.479,0.479v0.48l0.24,0.24v0.721
			l0.24-0.24v-0.48l0.239-0.48V339.4l0.24-0.24v0.48l0.24,0.238l0.24-0.238v-1.201l0.239-0.719v-1.201l0.24-0.24l0.24,0.24
			l0.24,0.24v0.721l0.479,0.479h-0.24l0.24-0.238l0.24,0.238l0.24,0.24v0.721l0.24,0.24v0.959l0.479,0.48h-0.24l0.24-0.24l0.24-0.48
			v-1.199l0.24-0.24v-0.24l0.239-0.24v-0.719l0.24-0.24v-1.68l0.24-0.721v-1.439l0.24-0.24v0.721l0.239,0.238v0.48l0.24,0.48v1.199
			l0.24,0.24V337l0.24,0.48v1.439l0.239,0.24v0.48l0.24,0.238l0.24-0.479v-0.48l0.24-0.24l0.239,0.24l0.24,0.48v0.959l0.24,0.721
			v1.439l0.24,0.24v-0.24l0.239-0.24v-0.24l0.24-0.24l0.24,0.24l0.24-0.479v-0.721l0.24-0.24v-0.24v0.24l0.239-0.24l0.24-0.24V339.4
			l0.24,0.24l0.24-0.24l0.239,0.24v0.479l0.24,0.24l0.24,0.48v0.721h0.24l0.239,0.238v1.922l0.24,1.199v2.4l0.24,0.959v0.24v-0.721
			l0.24-0.238V346.6l0.239-0.24v-0.719l0.24-0.24v-0.24v0.959l0.24,0.24v-0.719l0.24-0.24l0.239-0.24l0.24-0.48v-0.959l0.24-0.24
			l0.24,0.479v1.201l0.239,0.719v0.721l0.24,0.24l0.24,0.24v0.959l0.24,0.48V349v-0.24l0.24-0.48v-4.08l0.239-0.959v-0.48l0.24,0.24
			 M403.16,339.879l0.239,0.24v0.48l0.24,0.24v0.721l0.48,0.479v0.24l0.239,0.24l0.24,0.48v1.199l0.24,0.24v0.48l0.24-0.721v-0.479
			l0.239-0.48v-1.441l0.24-0.719v-3.121l0.24-0.719v-1.441l0.24-0.479v-0.48l0.24,0.48v1.92l0.239,1.199v2.16l0.24,0.721v1.92
			l0.48,0.48v1.68l0.239,0.959v1.439l0.24,0.24v-0.24l0.24-0.719v-2.4l0.24-1.439v-4.801l0.239-1.439v-3.6l0.24-1.441v-1.199V331
			l0.24,0.959v2.881l0.24,1.68v2.4l0.239,0.24v1.92l0.24,0.959v0.24l0.24-0.48v-1.92l0.24-0.238l0.239,0.238v-0.238l0.24-0.721
			v-1.439l0.24-0.48l0.24,0.24v0.959l0.239,0.48v0.24v-0.24l0.24-0.24v-0.959l0.48-0.48h-0.24l0.24,0.48l0.24,0.24v0.238l0.479,0.48
			h-0.24l0.24-0.48l0.24-0.479l0.479-0.48h-0.239l0.239,0.721l0.24,0.479v0.721l0.24,0.48v2.16l0.24,0.479v0.721h0.239h0.24h0.24
			l0.24,0.48v0.959l0.239,0.24l0.24-0.24v-0.24l0.24-0.238v0.238l0.24,0.24v0.721l0.239-0.24l0.24-0.48v-0.959l0.24-0.24v-0.24
			l0.24-0.24l0.479-0.48h-0.24h0.24l0.24-0.24v-0.479l0.24,0.24V343l0.24,0.721v2.158l0.239,0.721v0.48l0.24-0.24v-1.68l0.24-0.721
			v-0.959l0.24-0.24V343l0.239-0.48v-0.721h0.24l0.24-0.238l0.24,0.238v-0.238l0.239-0.24V340.6l0.24-0.24v-0.24l0.24-0.719v-3.602
			l0.24-1.199v-1.439l0.239,0.24v4.32l0.24,2.158v2.881l0.24,1.199v1.92l0.24-0.479v-2.641l0.239-1.439v-2.641l0.24-0.24v2.4
			l0.24,0.959v0.48l0.24-0.24v-0.959l0.239-0.48v-0.721l0.24-0.238v-0.48l0.24,0.24v0.24l0.24,0.238v0.721l0.24,0.24v0.48
			l0.239-0.24l0.48,0.48h-0.24l0.24-0.24l0.24-0.24h0.239l0.24,0.24l0.24,0.24v0.479l0.24,0.24v1.68l0.239,0.24v0.721l0.24,0.24
			l0.24-0.24v-0.721l0.24-0.24v-0.238v0.238l0.239,0.721v0.24l0.24-0.961v-3.6l0.24-1.68v-3.119l0.24-0.24v-0.24v0.24l0.239,0.959
			v3.361h0.24v-0.961l0.24-0.721v-0.719l0.24-0.24v-0.721l0.239-0.719v-1.441l0.48-0.719h-0.24h0.24h0.24v0.719l0.24,0.721v2.881
			l0.239,1.439v3.359l0.24,0.48v-1.439l0.24-1.441v-1.92l0.24,0.24v0.24l0.239,0.721v0.719v-0.959l0.24-1.439v-1.922l0.24,0.961
			v6.961l0.24,1.439v0.24v-0.48l0.239-0.48v-1.92l0.24-0.721v-1.439l0.24-0.48V339.4h0.479v0.24h0.24l0.24,0.238l0.24,0.24v0.961
			l0.239,0.24v0.479l0.24,0.24v0.48l0.24,0.24v-0.24l0.24-0.24v-1.439l0.239-0.721v-0.24l0.24,0.24v0.961l0.24,0.959v2.4l0.24,0.48
			v0.48l0.24-0.24v-0.961l0.239-0.719v-1.441l0.24-0.719v-1.441l0.24-0.238v-0.24l0.24,0.24v0.719l0.239,0.24v0.961l0.24,0.719v2.4
			l0.24,0.721v0.959l0.24,0.24v-0.48l0.239-0.24V345.4l0.24-0.24v-0.24l0.24-0.24v-0.721l0.24,0.24l0.239,0.721V349l0.24,1.68v2.881
			l0.24,0.959v1.201l0.24-0.24V355l0.239-0.961v-3.84l0.24-1.439v-3.119l0.24-1.201v-1.68l0.24-0.721v-2.879l0.239,0.24v0.479
			l0.24,0.24V343l0.24,0.721v0.719h0.24v4.801l0.24,2.4 M365.479,345.16l0.24-2.4v-4.801l0.24-1.439v-0.721l0.24,0.48v0.48
			l0.239,0.24v3.84l0.24,1.68v2.881l0.24,0.719v1.201l0.479,0.719h-0.239l0.239-0.479l0.24,0.238v2.881l0.24,0.961v1.68l0.24,0.24
			v0.479l0.239,0.24v0.48l0.24,0.48v1.68l0.24,0.48v-0.961l0.24-0.959v-3.121l0.239-0.719v-1.441l0.24-0.719v-0.961l0.24-0.24v-0.48
			l0.24-0.479v-1.201l0.24-0.24v-2.158l0.239-0.961v-1.92l0.24-0.721v-1.199l0.24-0.24v0.24l0.24,0.24v-0.24l0.239-0.24v-1.199
			l0.24-0.24V337l0.24,0.24v0.719h0.24v-1.199l0.239-0.721V334.6l0.24-0.48v-1.199h0.48v0.24h0.239l0.24,0.24h0.24v1.92l0.24,0.479
			V337l0.239,0.48v-0.961l0.24-1.199v-3.121l0.24-1.439v-3.119l0.24,0.238v1.682l0.239,0.959V331l0.24,0.24v1.439l0.24,0.721v1.199
			l0.24,0.721v0.479v-0.238h0.24l0.239,0.238v0.24l0.24-0.24H377v0.48l0.24,0.721v0.721l0.239-0.24v-0.721l0.24-0.721v-1.199
			l0.24-0.24v0.24l0.24,0.48v2.879l0.239,0.721v0.48l0.24-0.24v-0.24l0.24-0.24v-0.721l0.24-0.479v-0.24v0.24l0.239,0.24v0.479
			l0.24,0.24v0.48l0.24,0.48v0.479v-0.238l0.24-0.721v-1.439l0.239-0.48v-0.721l0.24-0.24v-0.959l0.24-0.24v0.24v-0.721l0.24-0.719
			v-1.441l0.239-0.479v-0.24v0.479l0.24,0.24l0.24,0.24v1.439l0.24,0.24v1.201l0.24,0.719v1.92l0.239,0.48v1.201l0.24,0.479v1.441
			l0.24,0.479v1.441l0.479,0.479h-0.239l0.239-0.959l0.24-0.48v-0.48l0.24,0.24V343l0.24,0.721v1.68l0.239,0.959v1.439l0.24,0.48
			v0.48l0.24-0.24v-0.48l0.24-0.24v-0.479l0.239-0.721v-1.68l0.24-0.721v-1.68l0.24-0.721v-0.479l0.24,0.24l0.239-0.24l0.24-0.24
			v-1.201l0.24-0.238l0.24,0.238v0.48l0.239,0.48v0.48l0.24-0.24l0.24,0.24l0.24,0.24v0.959l0.24,0.721v2.879l0.239,0.721v1.92
			l0.24,1.199v3.121l0.24,0.959v1.92l0.24,0.961v-3.359l0.239-3.361v-6.24l0.24-1.92V340.6v0.24l0.24,0.721v2.16l0.24,0.719v0.48
			v-0.961l0.239-0.719v-0.721l0.24-0.24l0.24-0.24l0.24,0.24l0.239,0.24v1.92l0.24,1.68v3.121l0.24,1.199v2.641l0.24,0.24v-0.48
			l0.239-1.199v-3.842l0.24-0.959v-1.68l0.24-0.48v-0.721l0.24-0.479v-0.961l0.239-0.721v-0.959l0.24-0.48v-0.48l0.24,0.24v0.48
			l0.24-0.24V339.4l0.24-0.24v-1.201l0.239-0.479v-0.24v0.24l0.24,0.24v0.479l0.24,0.24v1.439l0.24,0.24v-0.24l0.239-0.238v-0.721
			l0.24-0.24v-0.721l0.24,0.24v0.48l0.24,0.48v1.68l0.239,0.48v0.719l0.24,0.24v-0.24l0.24-0.24l0.24,0.24v0.24l0.239,0.24v0.721
			l0.48,0.48v0.479l0.24,0.24v-0.719l0.239-0.24l0.24-0.48v-0.961l0.48-0.719v-0.48h0.239v1.199l0.24,0.24V343l0.24,0.48v0.479
			l0.24-0.238V343l0.24-0.721v-3.359l0.239-0.961v-0.719l0.24,0.24v2.16L401,340.6v0.48l0.24-0.48v-1.68l0.239-0.24v1.68l0.24,0.48
			v0.721l0.24,0.238v-0.479l0.24-0.24v-0.721l0.239-0.48v-0.959l0.24-0.48v-0.24l0.24,0.24v0.24l0.24,0.24v0.959 M326.6,340.119
			l0.24,0.48v1.199h0.48v-0.479l0.479-0.48h-0.24l0.24,0.721l0.48,0.479h-0.24l0.24-0.479l0.239-0.48v-0.961l0.24,0.24v0.48
			l0.24,0.24v0.959l0.24,0.24h0.239l0.24-0.24v-0.24l0.24-0.479v-2.16l0.24-0.961v-0.959l0.239,0.24l0.24-0.24V337l0.24,0.24v1.92
			l0.24,0.959v0.48v-0.24l0.239-0.48v-0.719l0.24,0.24v0.24l0.24,0.719v0.961l0.24,0.24v0.719l0.24,0.48v0.48l0.479,0.48h-0.24
			l0.24-0.48l0.24-0.48l0.24,0.24v0.721l0.239,0.238v0.48l0.24,0.48v0.721l0.24,0.238v0.721l0.24,0.961v2.16l0.239,0.479v0.721
			l0.24,0.48v0.959h0.48v-0.24l0.239-0.479v-0.961l0.48-0.721v-1.199l0.24-0.721v-0.719l0.239-0.24v-1.201l0.24-0.719l0.24,0.24
			v-0.961l0.479-0.48v-0.238l0.24-0.24l0.24,0.24v0.719l0.24,0.721v1.68l0.24,0.721v2.16l0.239,1.199v0.959l0.24,0.24l0.24,0.24
			v0.24l0.24,0.24v-0.48l0.239-0.959v-3.121l0.24-1.439v-2.881l0.24-0.479v2.398l0.24,0.48v-0.48l0.239-0.719v-1.92l0.24-1.201
			v-2.16l0.24-0.719v-0.48h0.24l0.239,0.24l0.24,0.24v-0.721l0.24-0.24v-0.24l0.24-0.238v-1.441l0.239-0.24v0.48l0.24,0.48v1.199
			l0.24,0.24v0.48l0.24-0.24v-1.439l0.239-1.201v-1.199h0.48v1.439l0.24,0.48v0.721l0.24,0.479v1.201l0.239,0.48v1.68l0.24,0.959
			v1.68l0.24-0.238h0.24v-1.682l0.239-0.479v-0.24l0.24,0.24v0.959l0.24-0.24v-0.719l0.24-0.961v-3.119l0.239-1.441v-3.6h0.24v1.68
			l0.24,1.441v6.719l0.24,1.201v0.24v-0.48l0.239-0.961v-3.119l0.24-0.721v-0.959l0.24,0.24v0.479l0.24,0.24v0.24l0.239,0.48v1.439
			l0.24,0.721v0.479l0.24-0.238v-0.48l0.24-0.48v-2.16l0.239-0.48v-0.238l0.24,0.719v1.92l0.24,0.24v-0.24l0.24-0.719v-3.121
			l0.24-1.199v-1.68l0.239-0.24v0.719l0.24,0.24l0.24,0.24v0.24l0.24,0.24l0.239,0.24v0.959l0.24,0.48v0.721l0.24,0.479v0.721
			l0.24,0.24v-0.48l0.239-0.48v-0.719l0.24-0.48v1.439l0.24,0.721v1.199l0.24,0.48v0.961l0.239-0.24v-1.201l0.24-0.959v-0.961
			l0.24-0.479v-1.201l0.24-0.721v-0.479l0.239-0.24v-0.48l0.24-0.24v-0.24l0.24-0.24v0.721l0.24,0.721v1.92l0.239,0.959v2.4
			l0.24,0.24v0.48l0.24,0.24v1.199l0.24,0.24v0.48l0.24,0.24v0.719l0.479,0.48h-0.24l0.24-0.721l0.24-0.719v-3.361l0.24-0.959
			v-1.439l0.239,0.238v0.48l0.24,0.24v0.48l0.24-0.24v-0.24l0.24-0.24v0.24l0.239,0.24v0.959l0.24,0.24v0.48l0.24,0.24v-0.24
			l0.479-0.48h-0.239h0.239l0.24,0.48v1.199l0.24,0.48v1.201l0.24,0.479v1.201l0.239,0.24v1.68l0.24,0.959v3.361l0.24,1.199v1.199
			h0.24v-1.92l0.239-0.479v0.479l0.24,0.721v0.48v-0.24l0.24-0.24v0.721l0.24,0.959v1.92l0.24,0.24V355l0.239-0.24v-0.721l0.24-0.24
			v-1.68l0.24-0.719l0.24,0.24v1.199l0.239,0.48v0.719l0.24-0.24v-1.439l0.24-0.48v0.24l0.24,0.24v0.721l0.239,0.24v0.24l0.24-0.24
			v-1.441l0.24-0.719v-0.48v0.24h0.24l0.239-0.721v-5.039 M286.76,330.76l0.24-0.24h0.24v1.68l0.24,0.721v2.16l0.24,1.199v1.201
			l0.24-0.24v-0.961l0.24-0.719v-1.92l0.48-0.721h-0.24l0.24,0.721l0.24,0.238v1.201l0.24,0.24v0.479l0.24,0.24v0.24l0.24,0.24V337
			l0.24,0.24v0.719l0.24,0.24l0.24-0.24v0.721l0.24,0.24v0.721l0.24,0.238v0.24l0.24,0.24h0.48v0.48l0.24,0.24v0.48l0.24,0.238
			v1.441l0.24,0.48v0.959h0.24v-0.959l0.24-0.721v-1.201l0.24-0.479v-1.441l0.24-0.238l0.24-0.24v-1.441l0.24-0.719v-0.721
			l0.24-0.24v0.24l0.24,0.721v2.16l0.24,0.479v1.201l0.24,0.48v0.479l0.24,0.48V343l0.24,0.24V343l0.24-0.24v-0.721l0.24-0.479
			v-0.48l0.24,0.24v0.959l0.24,0.721v2.641l0.24,0.719v0.48l0.24-0.48v-1.439l0.24-0.961v-2.398l0.48-0.721h-0.24l0.24,0.959
			l0.24-0.238l0.24-0.24v0.479l0.24,0.48v0.24l0.24,0.24v1.199l0.24,0.48v0.24l0.24,0.24v0.721l0.24,0.479v0.961l0.24,0.719v1.441
			l0.479,0.719h-0.24l0.24-0.238l0.24-0.721v-6.48l0.24-3.359v-5.52l0.239-0.961v3.359l0.24,1.441v0.959l0.24-0.24v-1.439l0.24-0.24
			V337l0.239,0.48v1.199l0.24,0.48v0.959l0.24,0.48v0.48l0.24-0.24v-0.721l0.24-0.479v-0.961l0.239-0.48v-0.719l0.24-0.24l0.24,0.24
			v0.479l0.24,0.24v1.201l0.479,0.479h-0.24h0.24l0.24,0.24l0.479,0.48h-0.239l0.239-0.48l0.24-0.479v-1.441l0.24-0.479v-1.201
			l0.24-0.48V334.6l0.239-0.24h0.24v2.16l0.24,0.961v1.68l0.24,0.959v1.201h0.479V340.6l0.24-0.24h0.24v0.48l0.239,0.721v3.359
			l0.24,1.439v2.4l0.24,0.961v1.439l0.24,0.24l0.24,0.24v-0.721l0.239-0.961v-2.639l0.24-1.201v-0.959l0.24-0.24v-0.721l0.24-0.959
			v-1.92l0.479,0.479h-0.24l0.24-0.479l0.24-0.48v-2.4l0.24-0.719v-0.48l0.239,0.24v0.479l0.24,0.24v0.48l0.24,0.24v1.68l0.24,0.721
			v0.959l0.239,0.721v2.16l0.24,0.24h0.24h0.24l0.239,0.24v1.439l0.24,0.719v1.682l0.24,0.719v0.48l0.24-0.24v-2.16l0.239-0.719
			V346.6l0.24-0.24v-0.48l0.24,0.24l0.24,0.24v0.24v-0.24l0.24-0.24v-0.24l0.239-0.238v-0.721l0.24-0.24v-0.48l0.24-0.24v-0.719
			l0.24-0.24v-0.961l0.239-0.24l0.24,0.24l0.24-0.24v-0.959l0.24-0.721v-0.959l0.239,0.24l0.24,0.24v1.199l0.24,0.721V343
			l0.24,0.959v2.4l0.239,1.201V349l0.24,0.24v0.48l0.24-0.24v-0.24l0.24-0.24v0.24l0.239-0.24v-1.201h0.24h0.24v-0.959l0.24-0.48
			v-1.199l0.239-0.48v-1.439l0.24-0.48v-0.48l0.24-0.24v0.24l0.24,0.48v4.08l0.24,1.439v2.641l0.239,0.48v-1.441l0.24-1.199v-4.561
			l0.24-2.879v-6h0.24v1.439l0.239,0.48v-0.961l0.24-0.719v-1.201l0.24-0.48v-1.68l0.24-0.24v-0.479h0.239v0.479l0.24,0.961v1.68
			l0.48,0.48v0.24v-0.24l0.239-0.24v0.721l0.24,0.719v0.961l0.24-0.24v-0.24l0.24-0.24v-0.721l0.239-0.479v-0.48l0.24-0.24h0.24
			l0.479,0.48v0.24l0.24,0.24l0.24,0.238v0.48l0.24,0.24v0.24l0.24,0.24v0.959l0.239,0.721v1.439 M247.88,342.279l0.24-0.24
			l0.24,0.24v0.961l0.24,0.48v0.719l0.24-0.24l0.24-0.24v-0.238l0.24-0.24v-0.721l0.48-0.48h-0.24l0.24,0.24l0.24,0.24v0.961
			l0.24,0.719v0.961l0.24-0.24l0.24-0.24v-1.199l0.24-0.24l0.24,0.24v0.959l0.48-0.48h-0.24l0.24,2.641l0.24,2.641v7.199h0.24
			v-2.641l0.24-1.199v-0.48v0.24h0.48h-0.24h0.24l0.24,0.24l0.48,0.721h-0.24l0.24-0.48h0.24v-1.201l0.24-0.238v-0.48l0.24-0.24
			v-0.721l0.24-0.24v-0.719l0.24-0.24v-0.48l0.24-0.48v-0.959l0.24-0.48v-1.68l0.24-1.439V337l0.24-1.92v-1.68l0.24,0.479v0.721
			l0.24-0.48v-1.92l0.24-0.479v-0.24v0.479l0.24,0.24l0.24,0.24l0.24,0.24v1.199l0.24,0.721v1.439l0.48,0.721h-0.24l0.24-0.24
			l0.24-0.48v-0.719l0.24,0.24v0.479l0.24,0.24v-0.719l0.24-0.24v-0.961l0.24-0.48v-1.68h0.24v0.48l0.24,0.721v1.68l0.24,0.959
			v2.641l0.24,0.48v0.24l0.24-0.48v-3.6l0.24-1.201V333.4v0.24l0.24,0.719v0.24v-2.879l0.24-1.922v-1.439l0.24,0.961v4.799
			l0.24,0.48v-1.439l0.24-0.721v-0.719l0.24,0.479v1.441l0.24,0.719v1.439l0.24,0.48v2.16l0.24,0.48v0.48l0.24,0.24v-0.48
			l0.24-0.721v0.24v-0.24l0.24,0.24v0.24l0.24,0.48v1.199l0.24,0.48v0.48l0.24-0.24V340.6l0.24-0.721v-1.68l0.24-0.719v-1.92
			l0.24-0.961v-1.68l0.24-0.48v2.16l0.24,0.961v0.719l0.24-0.719v-1.201l0.24,0.24v0.721l0.24,0.24v-0.24l0.24-0.24v-0.48l0.24,0.24
			v-0.48l0.24-0.24v0.24l0.24,0.24v0.24l0.24,0.48v0.959l0.24,0.721l0.24-0.24v-0.961l0.24-0.719v-1.68l0.24-0.721v-1.439l0.24-0.24
			v0.48l0.24,0.719v1.92l0.24,0.48v1.199l0.24,0.48v1.441l0.24,0.959v1.68l0.24,0.48v0.959l0.24-0.479v-0.961l0.24-0.24l0.24-0.24
			v-0.238l0.24-0.24v-0.48l0.24,0.24v0.24l0.24,0.24v0.479l0.24,0.24v1.201l0.48-0.48h-0.24h0.24l0.24,0.24l0.24,0.24v2.16
			l0.24,0.719v0.721l0.24-0.24v-0.24l0.24-0.24v-2.16l0.24-1.199v-0.961l0.24,0.24v1.201l0.24,0.479v0.721l0.24,0.24v0.24v-0.721
			l0.24-0.24v-0.48l0.24,0.24v0.48l0.24,0.24L275,343l0.24,0.24l0.24,0.24v0.719l0.24-0.24l0.24-0.238l0.24,0.238l0.24-0.238V343
			l0.24-0.24v3.119l0.24,2.881v5.76l0.24,1.68v-1.68l0.24-0.24v-0.719l0.24-0.24l0.24,0.24v0.719l0.24,0.24v0.24l0.24,0.24h0.24
			l0.24,0.24v0.479l0.24,0.48v1.201l0.24,0.479v1.92l0.24-0.238l0.24-0.48l0.24,0.24v0.719l0.24,0.961v2.4l0.24,0.24v-0.24
			l0.24-0.721v-2.16l0.24-1.199v-3.84l0.24-1.92v-3.602l0.24-1.68v-1.92l0.24,0.721v5.039l0.24,4.32v14.4l0.24,3.119v2.16l0.24,0.24
			v-5.279l0.24-5.52v-14.4l0.24-6.721V337h0.48h-0.24h0.24l0.48-0.48h-0.24l0.24,0.24l0.24-0.24v-1.199l0.24-0.48v-0.721l0.48-0.479
			h-0.24h0.24l0.24-0.721v-0.48l0.24-0.24l0.24,0.24v0.48l0.24,0.48v0.479l0.24-0.238l0.24-0.24v-1.441l0.24-0.479v-0.24l0.24-0.24
			v0.24v-0.48 M207.32,336.52v-0.721l0.24-0.238v-1.201l0.24-0.719v-1.441l0.24-0.24v1.441l0.24,0.479v1.201l0.24,0.719v1.682
			l0.24,0.24l0.24,0.238l0.24,0.24l0.24,0.24v0.24l0.48,0.48h-0.24h0.24l0.24-0.24v-0.721l0.24-0.24l0.24,0.24l0.24,0.24v0.48
			l0.24,0.48v0.959l0.24,0.24v0.24l0.48,0.48h-0.24h0.24l0.24-0.24v-0.48l0.48-0.48h-0.24h0.24l0.48-0.479v-0.24l0.24,0.24v0.238
			l0.24,0.24v0.48l0.24,0.24v1.199l0.24,0.48v0.721l0.24,0.24v0.479l0.24,0.24v-0.24l0.24-0.238v-1.682l0.24-0.959v-1.439
			l0.24-0.721v-0.48h0.24v1.68l0.24,0.721v1.439l0.24,0.24v-0.721l0.24-0.238v-0.24l0.24-0.48v-2.641l0.48-0.479V337l0.24-0.721
			v-1.199l0.24-0.48v-0.24l0.24,0.24v0.721l0.24,0.24v0.479l0.24-0.24v-0.238l0.48-0.48h-0.24l0.24,0.48h0.24l0.24-0.24l0.24,0.24
			v0.238l0.24,0.48V337l0.24,0.24v0.48h0.24l0.48-0.48V337l0.24,0.24v0.48l0.48,0.479H221l0.24-0.479l0.24-0.48v-0.721h0.24
			l0.24,0.24v0.721l0.24,0.479v1.201h0.24l0.24-0.24v-0.721l0.48-0.719h-0.24h0.24h0.24h0.24V337l0.24-0.48v-0.721h0.24l0.24,0.24
			v1.201l0.24,0.719v0.721l0.24,0.48v-0.24l0.24-0.48v-0.48l0.24-0.479v-1.682l0.48-0.719h-0.24h0.24l0.24,0.48v2.16l0.24,0.719v2.4
			l0.24,1.439v4.801l0.24,0.24v0.24v-0.24l0.24-0.24v-0.961h0.24v-0.959l0.24-0.48v-1.199l0.24-0.24v0.24l0.24,0.479v1.201
			l0.24,0.719v1.441l0.24,0.719V349l0.24,0.24V349l0.24-0.24l0.24,0.24v0.24l0.24,0.48v0.719l0.24,0.48v0.48l0.24-0.24l0.24,0.24
			v0.959l0.24,0.24v0.48l0.24,0.24v-1.201l0.24-0.479v-0.961l0.24-0.24v0.24l0.24,0.24v0.48l0.24-0.24v-0.48l0.24-0.721v-2.16
			l0.24-0.719v-1.201l0.24-0.238v-0.24l0.24-0.24v-0.48l0.24-0.24v-0.959l0.24-0.24V343l0.24,0.24v1.199l0.24,0.24v0.24v-0.24h0.24
			v-0.959l0.24-0.24v-1.682l0.24-0.238v0.238l0.24,0.24l0.24-0.24l0.24-0.238v-1.201h0.24l0.24,0.24l0.24,0.24v0.48l0.24,0.24v0.719
			l0.24-0.24l0.24-0.719v-3.121l0.24-2.16v-3.119v0.48l0.24,1.68v3.6l0.24,0.48v-1.68l0.24-0.48v0.721l0.24,0.719v0.24l0.24-0.24
			v-0.48h0.24l0.24,0.24v-0.24l0.24-0.238H239h-0.24H239h0.48v-0.24l0.24,0.24l0.24,0.238v0.721l0.24,0.48h0.24l0.24,0.24v0.719
			l0.24,0.24v1.201l0.24,0.719v0.24l0.24-0.24v-0.959l0.24-0.48V339.4l0.24-0.961v-3.119l0.24-0.721v-0.721l0.24-0.238v0.479
			l0.24-0.24v-0.719l0.24,0.24v4.08l0.24,0.959v0.24l0.24-0.24v-2.16l0.24-0.719v-0.48l0.24,0.24v0.479l0.24,0.24v1.201l0.24,0.24
			l0.24,0.24v0.959h0.24v-0.48l0.24-0.24v-0.479h0.24l0.24,0.24l0.24-0.24v-0.24l0.24,0.24v1.199l0.24,0.24v0.721l0.24-0.24
			l0.24-0.48v-1.199l0.24,0.238v0.24l0.24,0.48v2.16l0.24,0.959V343l0.24,0.721v0.238v-0.238l0.24-0.48v-0.961 M166.52,344.439
			l0.24,0.24l0.24-0.24v-0.48l0.24-0.238v-0.24l0.24-0.24v-0.48l0.24-0.24v-0.48l0.24-0.24v-0.719h0.24l0.24,0.24v0.24l0.24,0.479
			v0.48h0.24l0.24-0.24l0.24-0.48v-0.959l0.24-0.48v-1.199l0.24-0.48v-1.199l0.24-0.24v-0.961l0.24-0.24v0.24l0.24,0.48v0.721
			l0.24,0.24v-0.48l0.24-0.24v-1.92l0.24-0.961v-0.959h0.24v0.48h0.48h-0.24l0.24,0.479l0.24,0.961v2.879l0.24,1.441v1.439v-0.24
			l0.24-0.721V339.4l0.24,0.719v1.201l0.24-0.24v-2.641l0.24-0.24v0.24l0.24,0.24v-1.199l0.24-0.721v-0.961l0.24,0.24v0.48
			l0.24,0.721v1.199l0.24,0.961v2.16l0.24,0.479v0.721l0.24,0.24v-0.24l0.24-0.48l0.24,0.24v0.721l0.24,0.48v1.68l0.24,0.719v0.721
			l0.24,0.48v1.439l0.24-0.24v-0.959l0.24-0.961v-1.439h0.24v0.959l0.24-0.24v-0.959l0.24-0.48v-0.719l0.24,0.238v0.48l0.24,0.48
			v0.48l0.24,0.24v-0.721l0.24-0.721v-1.68l0.24-0.24v-0.48l0.24,0.24v0.24l0.24,0.24v0.24l0.24,0.24v1.199l0.24,0.48v0.961
			l0.24,0.238v0.961l0.24,0.24v0.48l0.24-0.24h0.24l0.24,0.24v0.719l0.24,0.48v1.199l0.24-0.238v-0.48l0.24-0.721v-0.959l0.24,0.238
			v0.24l0.48,0.721V349h0.24v0.48l0.24,0.479v0.961l0.24,0.48v1.439l0.24,0.48v0.24v-0.24l0.24-0.961v-5.039l0.24-4.08v-9.361
			l0.24-0.238v3.6l0.24,2.16v2.16l0.24-0.24v-0.24l0.24-0.24V339.4l0.24-0.48v-0.721l0.24-0.24v-0.479l0.24,0.24v0.238l0.24,0.24
			v0.24v-0.24l0.24-0.24l0.24-0.238l0.24,0.238v1.92l0.24,0.721v0.961l0.24-0.24v-0.24l0.24-0.48v-0.721l0.24-0.238v0.479h0.24
			l0.24-0.24v-0.959l0.48-0.48v-0.24l0.24-0.24v-0.479l0.24-0.48v-0.48h0.24l0.24-0.24v-0.24l0.24-0.24v-0.479l0.24,0.24l0.24,0.238
			v0.961l0.24,0.48v1.199l0.24,0.48v1.199l0.24,0.24v0.48l0.24-0.24l0.24-0.24l0.48,0.48h-0.24h0.24l0.24-0.24l0.24-0.48v-0.479
			l0.24,0.238v0.24l0.24,0.24v0.961l0.24,0.24v0.719l0.24,0.24v0.721l0.24,0.24l0.24-0.24v-0.48l0.24,0.24l0.24,0.24v0.24l0.24,0.24
			v0.238v-0.238l0.24-0.24v-0.721l0.24-0.24v-0.24l0.24-0.24v-0.479l0.24-0.24l0.24-0.48v-0.721l0.24-0.479l0.24,0.479v0.48
			l0.24,0.24v0.721h0.24l0.24-0.24l0.24,0.24V343l0.24,0.24v0.48l0.24,0.238v-0.479l0.24-0.48v-0.48l0.24,0.24v0.48l0.24,0.24v0.719
			l0.24,0.24v0.24v-0.24l0.48-0.719h-0.24l0.24,0.719h0.24l0.24,0.24l0.24,0.24v0.24l0.48,0.48h-0.24l0.24-0.721l0.24-0.24
			l0.24,0.24v1.199l0.24,0.24v0.24l0.24,0.24v0.48l0.24-0.24l0.24-0.24V345.4l0.24-0.48v-0.961l0.24-0.238v0.238l0.24,0.48v0.961
			l0.48-0.48h-0.24h0.24l0.24,0.24l0.48-0.48h-0.24h0.24l0.24,0.24l0.24-0.24l0.24-0.24v-0.719l0.24-0.24h0.24l0.48-0.48v-0.721
			l0.24-0.24V340.6l0.24-0.48v-0.959l0.24-0.48v-0.24v0.24l0.48,0.48v0.719h0.48v-0.959l0.24-0.48V337l0.24-0.48 M126.92,338.92
			l0.24-0.48v-0.48v0.48l0.24,0.721v1.439l0.24,0.48v1.68l0.24,0.24v-0.24l0.24-0.721v-0.24v0.961l0.24,0.48l0.24,0.24l0.24,0.24
			v0.479l0.24,0.48v1.199l0.24,0.48v0.48l0.24,0.24v0.24l0.24,0.24l0.24-0.24l0.24-0.24v-1.92l0.24,0.24l0.24,0.479v0.48l0.48-0.48
			v-0.959l0.24-0.721v-2.4l0.24-0.479V340.6l0.24-0.48v-0.479l0.24,0.238v1.201l0.24,0.719v0.24v-0.479l0.24-0.721v-1.68l0.24-0.721
			v-1.199l0.24,0.24v1.68l0.24,1.439v3.84l0.24,0.721v0.48l0.24,0.238v-0.238l0.24-0.721v-1.68l0.24-0.721v-1.68l0.24-0.48v-0.48
			l0.24,0.24v0.48l0.24,0.721v3.359l0.24,0.721v0.959l0.24,0.48v0.959v-0.238l0.24-0.24v-1.201l0.24-0.479v-1.441l0.24-0.719v-0.961
			l0.24,0.24l0.24,0.24h0.48v-0.24V343l0.24,0.48v0.719l0.24,0.24v1.201l0.24-0.24v-0.24l0.24-0.721v-1.92l0.24-0.721v-0.719
			l0.24-0.24v-0.24l0.24,0.24v0.721l0.24,0.238v0.24l0.24,0.24l0.24-0.24v-0.479l0.24-0.48v-0.721l0.24-0.24l0.24-0.24V339.4h0.24
			h0.24l0.24,0.719v1.201l0.24,0.24v-0.24l0.24-0.48v-1.199l0.24-0.961v-1.92l0.24-0.24v0.24l0.24,0.24v0.48l0.24-0.24v-0.48
			l0.24-0.24l0.24,0.24v0.48l0.24,0.48v0.719l0.24,0.24v0.721l0.24,0.719v1.441l0.24,0.719v1.68l0.24,0.24l0.24-0.24V343l0.24-0.48
			v-1.68l0.24-0.24v-0.48l0.24,0.24l0.24,0.24l0.24,0.24v0.48l0.24,0.24l0.24,0.238l0.24,0.24v0.24l0.24,0.48v0.48V343l0.24-0.24
			v-0.721l0.24-0.479v-1.201l0.24-0.719v-0.721v0.24l0.24,0.24v0.719l0.24,0.24h0.24v-0.48l0.24-0.719v-1.92l0.24-0.48v-0.48
			l0.24-0.24v0.721l0.24,0.48v1.68l0.24,0.959v2.881l0.24,0.48v0.24l0.24-0.24v-0.961l0.24-0.48v-0.479v0.24l0.24-0.24l0.24-0.24
			v-3.359l0.24-0.961v-0.24l0.24,0.24v1.199l0.24,0.24v0.48l0.24,0.24v1.199l0.48,0.721v0.48l0.24,0.24v0.959l0.24,0.24l0.24-0.24
			v-0.721l0.24,0.24l0.24,0.24v1.201l0.48,0.479h-0.24l0.24-1.68l0.24-0.24v-0.719l0.24-0.48v-1.199l0.24-0.24v-0.48l0.24-0.24
			l0.24-0.24v-0.24l0.24-0.24V337l0.24-0.24v-0.961l0.24-0.238v-0.48l0.24-0.24h0.24l0.24,0.24v1.68l0.48,0.48h-0.24h0.24l0.24-0.24
			v-0.48l0.24-0.24v0.48l0.24,0.24l0.24,0.24v0.719l0.24,0.24v0.48l0.24,0.24v0.721l0.24,0.238v0.721l0.24,0.24v0.48l0.24-0.24
			l0.24-0.24l0.24-0.721v-0.24l0.24,0.24l0.24,0.24v0.721l0.24,0.24v0.479l0.24,0.48v0.961l0.24,0.24v0.959l0.24,0.24v-0.24
			l0.24-0.48V343l0.24,0.24v0.24l0.24,0.719v2.641l0.24,0.24v-0.24l0.24-0.24v-0.959l0.24-0.48v-0.721l0.24,0.24v-0.24l0.24-0.24
			v-0.719l0.24-0.24v-0.48l0.24-0.24v-0.959l0.24-0.48v-0.24l0.24-0.24v0.721l0.24-0.24l0.24-0.961v-4.08l0.24-1.199v-1.68
			l0.24,0.24v1.199l0.24,0.721v2.16l0.24,1.439v2.4h0.24v-0.961l0.48-0.48h-0.24l0.24,2.16l0.24,0.721v0.721l0.24,0.24v0.479
			l0.24,0.24 M102.44,342.039v2.16l0.24,0.721v0.959l0.24,0.48v-1.68l0.24-0.959v-1.201l0.24-0.48v-0.479l0.48-0.48v-0.961
			l0.24-0.479v-1.682l0.24-0.719v-2.4l0.24-0.24v-0.24v0.24l0.24,0.24v1.68l0.24,1.201v3.6l0.24,0.959V343l0.24,0.24v0.719
			l0.24,0.24h0.48h-0.24h0.24l0.24,0.24l0.24,0.48v0.48l0.24,0.479v0.48h0.24h0.24l0.24-0.48V345.4h0.24l0.24,0.24v0.959l0.24,0.721
			V349l0.24,0.721v2.398l0.24,0.48v0.721l0.24,0.24v-0.721l0.24-0.48v-0.719l0.24-0.24v-0.721l0.24-0.48v-0.24l0.24,0.24v0.721
			l0.24,0.24v0.959l0.48,0.721h-0.24l0.24-0.961l0.24-0.238v-0.48l0.24-0.48v0.24l0.24,0.24v0.24l0.24,0.24v1.199l0.24,0.48v-0.24
			l0.24-0.48v-1.439l0.24-0.24v-0.48l0.48-0.48h-0.24l0.24,0.24l0.24-0.24v-1.92l0.24-1.68v-4.08l0.24-1.199v-2.881l0.24-1.68
			v-1.439h0.24l0.24,0.24v2.16l0.24,1.199v1.199l0.24,0.24v-0.24l0.24-0.479v-0.961l0.24-0.719v-0.961l0.24-0.24v-0.721l0.24-0.238
			l0.24-0.24v-0.48l0.24-0.48v-0.48l0.48-0.479h-0.24l0.24,1.199l0.24-0.721v0.24v-0.24l0.24-0.238v-0.24l0.24-0.48v-0.961
			l0.24,0.48v0.961l0.24,0.24v0.719l0.24,0.48v1.92l0.24,0.48v1.199l0.24,0.48v0.48l0.24,0.24v0.719l0.24,0.24v0.24l0.24,0.48v0.719
			l0.24,0.24v0.24l0.24,0.48h0.24h0.24v-0.961l0.24-0.719v-0.961l0.24-0.48v-0.959l0.24-0.24v-0.48l0.24-0.24l0.24,0.24v0.48
			l0.24,0.48v2.639l0.24,0.961v1.68l0.24-0.24v-1.92l0.24-1.199v-2.641l0.24-0.959v-2.4l0.48-0.48v-0.24l0.24-0.24v-1.199l0.24,0.24
			v0.48l0.24,0.238v0.48h0.24l0.24-0.24v0.24l0.24,0.48v1.439l0.24,0.961v2.16l0.24,0.479v0.48l0.24,0.24v-0.24h0.48h-0.24h0.24
			h0.24l0.24-0.24l0.24-0.24l0.24-0.238v-0.721"/>
	</g>
	<text transform="matrix(0 -1 1 0 82.042 380.4297)" fill="#231F20" font-family="'Times-Roman'" font-size="10">Amplitude (mV)</text>
	<text transform="matrix(1 0 0 1 290.1201 410.2031)" fill="#231F20" font-family="'Times-Roman'" font-size="12">Time (s)</text>
	<text transform="matrix(1 0 0 1 123.0811 312.2812)" fill="#231F20" font-family="'Times-Roman'" font-size="12">Noisy recording</text>
	<text transform="matrix(1 0 0 1 414.917 312.2812)" fill="#231F20" font-family="'Times-Roman'" font-size="12">Recording−−A01246</text>
</g>
</svg>
